<?xml version="1.0" encoding="UTF-8" standalone="no"?><svg xmlns="http://www.w3.org/2000/svg" xmlns:xlink="http://www.w3.org/1999/xlink" contentStyleType="text/css" height="988px" preserveAspectRatio="none" style="width:833px;height:988px;background:#FFFFFF;" version="1.1" viewBox="0 0 833 988" width="833px" zoomAndPan="magnify"><defs/><g><rect fill="none" height="27.6094" id="_title" style="stroke:none;stroke-width:1.0;" width="177" x="329.25" y="10"/><text fill="#000000" font-family="sans-serif" font-size="14" font-weight="bold" lengthAdjust="spacing" textLength="167" x="334.25" y="29.5332">Diagramma di Sequenza</text><rect fill="#FFFFFF" height="30.3516" style="stroke:#181818;stroke-width:1.0;" width="10" x="280" y="153.5703"/><rect fill="#FFFFFF" height="278.6484" style="stroke:#181818;stroke-width:1.0;" width="10" x="280" y="214.2734"/><rect fill="#FFFFFF" height="30.3516" style="stroke:#181818;stroke-width:1.0;" width="10" x="280" y="523.2734"/><rect fill="#FFFFFF" height="290.6484" style="stroke:#181818;stroke-width:1.0;" width="10" x="280" y="583.9766"/><rect fill="#FFFFFF" height="30.3516" style="stroke:#181818;stroke-width:1.0;" width="10" x="569.5" y="183.9219"/><rect fill="#FFFFFF" height="30.3516" style="stroke:#181818;stroke-width:1.0;" width="10" x="762" y="432.2188"/><rect fill="#FFFFFF" height="30.3516" style="stroke:#181818;stroke-width:1.0;" width="10" x="762" y="699.3828"/><rect fill="none" height="660.3516" style="stroke:#000000;stroke-width:1.5;" width="816.5" x="10" y="229.2734"/><rect fill="none" height="223.9453" style="stroke:#000000;stroke-width:1.5;" width="796.5" x="20" y="658.6797"/><line style="stroke:#181818;stroke-width:0.5;stroke-dasharray:5.0,5.0;" x1="60" x2="60" y1="121.2188" y2="906.625"/><line style="stroke:#181818;stroke-width:0.5;stroke-dasharray:5.0,5.0;" x1="284.5" x2="284.5" y1="121.2188" y2="906.625"/><line style="stroke:#181818;stroke-width:0.5;stroke-dasharray:5.0,5.0;" x1="574.5" x2="574.5" y1="121.2188" y2="906.625"/><line style="stroke:#181818;stroke-width:0.5;stroke-dasharray:5.0,5.0;" x1="766.5" x2="766.5" y1="121.2188" y2="906.625"/><text fill="#000000" font-family="sans-serif" font-size="14" lengthAdjust="spacing" textLength="54" x="30" y="118.1426">UTENTE</text><ellipse cx="60" cy="52.1094" fill="#E2E2F0" rx="8" ry="8" style="stroke:#181818;stroke-width:0.5;"/><path d="M60,60.1094 L60,87.1094 M47,68.1094 L73,68.1094 M60,87.1094 L47,102.1094 M60,87.1094 L73,102.1094 " fill="none" style="stroke:#181818;stroke-width:0.5;"/><text fill="#000000" font-family="sans-serif" font-size="14" lengthAdjust="spacing" textLength="54" x="30" y="920.1582">UTENTE</text><ellipse cx="60" cy="931.7344" fill="#E2E2F0" rx="8" ry="8" style="stroke:#181818;stroke-width:0.5;"/><path d="M60,939.7344 L60,966.7344 M47,947.7344 L73,947.7344 M60,966.7344 L47,981.7344 M60,966.7344 L73,981.7344 " fill="none" style="stroke:#181818;stroke-width:0.5;"/><rect fill="#E2E2F0" height="31.6094" rx="2.5" ry="2.5" style="stroke:#181818;stroke-width:0.5;" width="73" x="248.5" y="88.6094"/><text fill="#000000" font-family="sans-serif" font-size="14" lengthAdjust="spacing" textLength="59" x="255.5" y="110.1426">SISTEMA</text><rect fill="#E2E2F0" height="31.6094" rx="2.5" ry="2.5" style="stroke:#181818;stroke-width:0.5;" width="73" x="248.5" y="905.625"/><text fill="#000000" font-family="sans-serif" font-size="14" lengthAdjust="spacing" textLength="59" x="255.5" y="927.1582">SISTEMA</text><rect fill="#E2E2F0" height="31.6094" rx="2.5" ry="2.5" style="stroke:#181818;stroke-width:0.5;" width="86" x="531.5" y="88.6094"/><text fill="#000000" font-family="sans-serif" font-size="14" lengthAdjust="spacing" textLength="72" x="538.5" y="110.1426">SUPABASE</text><rect fill="#E2E2F0" height="31.6094" rx="2.5" ry="2.5" style="stroke:#181818;stroke-width:0.5;" width="86" x="531.5" y="905.625"/><text fill="#000000" font-family="sans-serif" font-size="14" lengthAdjust="spacing" textLength="72" x="538.5" y="927.1582">SUPABASE</text><text fill="#000000" font-family="sans-serif" font-size="14" lengthAdjust="spacing" textLength="73" x="727.5" y="118.1426">DATABASE</text><path d="M749,67.6094 C749,57.6094 767,57.6094 767,57.6094 C767,57.6094 785,57.6094 785,67.6094 L785,93.6094 C785,103.6094 767,103.6094 767,103.6094 C767,103.6094 749,103.6094 749,93.6094 L749,67.6094 " fill="#E2E2F0" style="stroke:#181818;stroke-width:1.5;"/><path d="M749,67.6094 C749,77.6094 767,77.6094 767,77.6094 C767,77.6094 785,77.6094 785,67.6094 " fill="none" style="stroke:#181818;stroke-width:1.5;"/><text fill="#000000" font-family="sans-serif" font-size="14" lengthAdjust="spacing" textLength="73" x="727.5" y="920.1582">DATABASE</text><path d="M749,933.2344 C749,923.2344 767,923.2344 767,923.2344 C767,923.2344 785,923.2344 785,933.2344 L785,959.2344 C785,969.2344 767,969.2344 767,969.2344 C767,969.2344 749,969.2344 749,959.2344 L749,933.2344 " fill="#E2E2F0" style="stroke:#181818;stroke-width:1.5;"/><path d="M749,933.2344 C749,943.2344 767,943.2344 767,943.2344 C767,943.2344 785,943.2344 785,933.2344 " fill="none" style="stroke:#181818;stroke-width:1.5;"/><rect fill="#FFFFFF" height="30.3516" style="stroke:#181818;stroke-width:1.0;" width="10" x="280" y="153.5703"/><rect fill="#FFFFFF" height="278.6484" style="stroke:#181818;stroke-width:1.0;" width="10" x="280" y="214.2734"/><rect fill="#FFFFFF" height="30.3516" style="stroke:#181818;stroke-width:1.0;" width="10" x="280" y="523.2734"/><rect fill="#FFFFFF" height="290.6484" style="stroke:#181818;stroke-width:1.0;" width="10" x="280" y="583.9766"/><rect fill="#FFFFFF" height="30.3516" style="stroke:#181818;stroke-width:1.0;" width="10" x="569.5" y="183.9219"/><rect fill="#FFFFFF" height="30.3516" style="stroke:#181818;stroke-width:1.0;" width="10" x="762" y="432.2188"/><rect fill="#FFFFFF" height="30.3516" style="stroke:#181818;stroke-width:1.0;" width="10" x="762" y="699.3828"/><polygon fill="#181818" points="268,149.5703,278,153.5703,268,157.5703,272,153.5703" style="stroke:#181818;stroke-width:1.0;"/><line style="stroke:#181818;stroke-width:1.0;" x1="60" x2="274" y1="153.5703" y2="153.5703"/><text fill="#000000" font-family="sans-serif" font-size="13" font-weight="bold" lengthAdjust="spacing" textLength="7" x="67" y="148.7139">1</text><text fill="#000000" font-family="sans-serif" font-size="13" lengthAdjust="spacing" textLength="103" x="78" y="148.7139">Apre pagina Corsi</text><line style="stroke:#181818;stroke-width:1.0;" x1="567.5" x2="557.5" y1="183.9219" y2="179.9219"/><line style="stroke:#181818;stroke-width:1.0;" x1="567.5" x2="557.5" y1="183.9219" y2="187.9219"/><line style="stroke:#181818;stroke-width:1.0;" x1="285" x2="568.5" y1="183.9219" y2="183.9219"/><text fill="#000000" font-family="sans-serif" font-size="13" font-weight="bold" lengthAdjust="spacing" textLength="7" x="292" y="179.0654">2</text><text fill="#000000" font-family="sans-serif" font-size="13" lengthAdjust="spacing" textLength="171" x="303" y="179.0654">Verifica autenticazione utente</text><line style="stroke:#181818;stroke-width:1.0;" x1="291" x2="301" y1="214.2734" y2="210.2734"/><line style="stroke:#181818;stroke-width:1.0;" x1="291" x2="301" y1="214.2734" y2="218.2734"/><line style="stroke:#181818;stroke-width:1.0;stroke-dasharray:2.0,2.0;" x1="290" x2="573.5" y1="214.2734" y2="214.2734"/><text fill="#000000" font-family="sans-serif" font-size="13" font-weight="bold" lengthAdjust="spacing" textLength="7" x="307" y="209.417">3</text><text fill="#000000" font-family="sans-serif" font-size="13" lengthAdjust="spacing" textLength="178" x="318" y="209.417">Risultati verifica autenticazione</text><path d="M10,229.2734 L71,229.2734 L71,237.625 L61,247.625 L10,247.625 L10,229.2734 " fill="#EEEEEE" style="stroke:#000000;stroke-width:1.5;"/><rect fill="none" height="660.3516" style="stroke:#000000;stroke-width:1.5;" width="816.5" x="10" y="229.2734"/><text fill="#000000" font-family="sans-serif" font-size="13" font-weight="bold" lengthAdjust="spacing" textLength="16" x="25" y="243.7686">alt</text><text fill="#000000" font-family="sans-serif" font-size="11" font-weight="bold" lengthAdjust="spacing" textLength="132" x="86" y="242.6924">[Utente non autenticato]</text><line style="stroke:#181818;stroke-width:1.0;" x1="61" x2="71" y1="269.9766" y2="265.9766"/><line style="stroke:#181818;stroke-width:1.0;" x1="61" x2="71" y1="269.9766" y2="273.9766"/><line style="stroke:#181818;stroke-width:1.0;stroke-dasharray:2.0,2.0;" x1="60" x2="279" y1="269.9766" y2="269.9766"/><text fill="#000000" font-family="sans-serif" font-size="13" font-weight="bold" lengthAdjust="spacing" textLength="7" x="77" y="265.1201">4</text><text fill="#000000" font-family="sans-serif" font-size="13" lengthAdjust="spacing" textLength="127" x="88" y="265.1201">Mostra pagina di login</text><line style="stroke:#000000;stroke-width:1.0;stroke-dasharray:2.0,2.0;" x1="10" x2="826.5" y1="303.9766" y2="303.9766"/><text fill="#000000" font-family="sans-serif" font-size="11" font-weight="bold" lengthAdjust="spacing" textLength="108" x="15" y="315.3955">[Utente autenticato]</text><line style="stroke:#181818;stroke-width:1.0;" x1="61" x2="71" y1="341.1641" y2="337.1641"/><line style="stroke:#181818;stroke-width:1.0;" x1="61" x2="71" y1="341.1641" y2="345.1641"/><line style="stroke:#181818;stroke-width:1.0;stroke-dasharray:2.0,2.0;" x1="60" x2="279" y1="341.1641" y2="341.1641"/><text fill="#000000" font-family="sans-serif" font-size="13" font-weight="bold" lengthAdjust="spacing" textLength="7" x="77" y="336.3076">5</text><text fill="#000000" font-family="sans-serif" font-size="13" lengthAdjust="spacing" textLength="116" x="88" y="336.3076">Mostra pagina Corsi</text><line style="stroke:#181818;stroke-width:1.0;" x1="61" x2="71" y1="371.5156" y2="367.5156"/><line style="stroke:#181818;stroke-width:1.0;" x1="61" x2="71" y1="371.5156" y2="375.5156"/><line style="stroke:#181818;stroke-width:1.0;stroke-dasharray:2.0,2.0;" x1="60" x2="279" y1="371.5156" y2="371.5156"/><text fill="#000000" font-family="sans-serif" font-size="13" font-weight="bold" lengthAdjust="spacing" textLength="7" x="77" y="366.6592">6</text><text fill="#000000" font-family="sans-serif" font-size="13" lengthAdjust="spacing" textLength="139" x="88" y="366.6592">Mostra pagina del corso</text><polygon fill="#181818" points="268,397.8672,278,401.8672,268,405.8672,272,401.8672" style="stroke:#181818;stroke-width:1.0;"/><line style="stroke:#181818;stroke-width:1.0;" x1="60" x2="274" y1="401.8672" y2="401.8672"/><text fill="#000000" font-family="sans-serif" font-size="13" font-weight="bold" lengthAdjust="spacing" textLength="7" x="67" y="397.0107">7</text><text fill="#000000" font-family="sans-serif" font-size="13" lengthAdjust="spacing" textLength="129" x="78" y="397.0107">Ricerca corso con filtri</text><polygon fill="#181818" points="750,428.2188,760,432.2188,750,436.2188,754,432.2188" style="stroke:#181818;stroke-width:1.0;"/><line style="stroke:#181818;stroke-width:1.0;" x1="290" x2="756" y1="432.2188" y2="432.2188"/><text fill="#000000" font-family="sans-serif" font-size="13" font-weight="bold" lengthAdjust="spacing" textLength="7" x="297" y="427.3623">8</text><text fill="#000000" font-family="sans-serif" font-size="13" lengthAdjust="spacing" textLength="148" x="308" y="427.3623">Manda query al Database</text><line style="stroke:#181818;stroke-width:1.0;" x1="291" x2="301" y1="462.5703" y2="458.5703"/><line style="stroke:#181818;stroke-width:1.0;" x1="291" x2="301" y1="462.5703" y2="466.5703"/><line style="stroke:#181818;stroke-width:1.0;stroke-dasharray:2.0,2.0;" x1="290" x2="766" y1="462.5703" y2="462.5703"/><text fill="#000000" font-family="sans-serif" font-size="13" font-weight="bold" lengthAdjust="spacing" textLength="7" x="307" y="457.7139">9</text><text fill="#000000" font-family="sans-serif" font-size="13" lengthAdjust="spacing" textLength="83" x="318" y="457.7139">Risultati query</text><line style="stroke:#181818;stroke-width:1.0;" x1="61" x2="71" y1="492.9219" y2="488.9219"/><line style="stroke:#181818;stroke-width:1.0;" x1="61" x2="71" y1="492.9219" y2="496.9219"/><line style="stroke:#181818;stroke-width:1.0;stroke-dasharray:2.0,2.0;" x1="60" x2="284" y1="492.9219" y2="492.9219"/><text fill="#000000" font-family="sans-serif" font-size="13" font-weight="bold" lengthAdjust="spacing" textLength="14" x="77" y="488.0654">10</text><text fill="#000000" font-family="sans-serif" font-size="13" lengthAdjust="spacing" textLength="178" x="95" y="488.0654">Mostra lista aggiornata ai corsi</text><polygon fill="#181818" points="268,519.2734,278,523.2734,268,527.2734,272,523.2734" style="stroke:#181818;stroke-width:1.0;"/><line style="stroke:#181818;stroke-width:1.0;" x1="60" x2="274" y1="523.2734" y2="523.2734"/><text fill="#000000" font-family="sans-serif" font-size="13" font-weight="bold" lengthAdjust="spacing" textLength="14" x="67" y="518.417">11</text><text fill="#000000" font-family="sans-serif" font-size="13" lengthAdjust="spacing" textLength="107" x="85" y="518.417">Apre pagina Corso</text><line style="stroke:#181818;stroke-width:1.0;" x1="61" x2="71" y1="553.625" y2="549.625"/><line style="stroke:#181818;stroke-width:1.0;" x1="61" x2="71" y1="553.625" y2="557.625"/><line style="stroke:#181818;stroke-width:1.0;stroke-dasharray:2.0,2.0;" x1="60" x2="284" y1="553.625" y2="553.625"/><text fill="#000000" font-family="sans-serif" font-size="13" font-weight="bold" lengthAdjust="spacing" textLength="14" x="77" y="548.7686">12</text><text fill="#000000" font-family="sans-serif" font-size="13" lengthAdjust="spacing" textLength="118" x="95" y="548.7686">Mostra pagina corso</text><polygon fill="#181818" points="268,579.9766,278,583.9766,268,587.9766,272,583.9766" style="stroke:#181818;stroke-width:1.0;"/><line style="stroke:#181818;stroke-width:1.0;" x1="60" x2="274" y1="583.9766" y2="583.9766"/><text fill="#000000" font-family="sans-serif" font-size="13" font-weight="bold" lengthAdjust="spacing" textLength="14" x="67" y="579.1201">13</text><text fill="#000000" font-family="sans-serif" font-size="13" lengthAdjust="spacing" textLength="102" x="85" y="579.1201">Scrive recensione</text><line style="stroke:#181818;stroke-width:1.0;" x1="290" x2="332" y1="630.6797" y2="630.6797"/><line style="stroke:#181818;stroke-width:1.0;" x1="332" x2="332" y1="630.6797" y2="643.6797"/><line style="stroke:#181818;stroke-width:1.0;" x1="291" x2="332" y1="643.6797" y2="643.6797"/><polygon fill="#181818" points="301,639.6797,291,643.6797,301,647.6797,297,643.6797" style="stroke:#181818;stroke-width:1.0;"/><text fill="#000000" font-family="sans-serif" font-size="13" font-weight="bold" lengthAdjust="spacing" textLength="14" x="297" y="617.6475">14</text><text fill="#000000" font-family="sans-serif" font-size="13" lengthAdjust="spacing" textLength="131" x="315" y="609.4717">Controllo parole vietate</text><text fill="#000000" font-family="sans-serif" font-size="13" lengthAdjust="spacing" textLength="94" x="315" y="625.8232">nella recensione</text><path d="M20,658.6797 L81,658.6797 L81,667.0313 L71,677.0313 L20,677.0313 L20,658.6797 " fill="#EEEEEE" style="stroke:#000000;stroke-width:1.5;"/><rect fill="none" height="223.9453" style="stroke:#000000;stroke-width:1.5;" width="796.5" x="20" y="658.6797"/><text fill="#000000" font-family="sans-serif" font-size="13" font-weight="bold" lengthAdjust="spacing" textLength="16" x="35" y="673.1748">alt</text><text fill="#000000" font-family="sans-serif" font-size="11" font-weight="bold" lengthAdjust="spacing" textLength="107" x="96" y="672.0986">[Recensione valida]</text><line style="stroke:#181818;stroke-width:1.0;" x1="760" x2="750" y1="699.3828" y2="695.3828"/><line style="stroke:#181818;stroke-width:1.0;" x1="760" x2="750" y1="699.3828" y2="703.3828"/><line style="stroke:#181818;stroke-width:1.0;" x1="290" x2="761" y1="699.3828" y2="699.3828"/><text fill="#000000" font-family="sans-serif" font-size="13" font-weight="bold" lengthAdjust="spacing" textLength="14" x="297" y="694.5264">15</text><text fill="#000000" font-family="sans-serif" font-size="13" lengthAdjust="spacing" textLength="134" x="315" y="694.5264">Inserimento recensione</text><line style="stroke:#181818;stroke-width:1.0;" x1="291" x2="301" y1="729.7344" y2="725.7344"/><line style="stroke:#181818;stroke-width:1.0;" x1="291" x2="301" y1="729.7344" y2="733.7344"/><line style="stroke:#181818;stroke-width:1.0;stroke-dasharray:2.0,2.0;" x1="290" x2="766" y1="729.7344" y2="729.7344"/><text fill="#000000" font-family="sans-serif" font-size="13" font-weight="bold" lengthAdjust="spacing" textLength="14" x="307" y="724.8779">16</text><text fill="#000000" font-family="sans-serif" font-size="13" lengthAdjust="spacing" textLength="126" x="325" y="724.8779">Conferma inserimento</text><line style="stroke:#181818;stroke-width:1.0;" x1="290" x2="332" y1="760.0859" y2="760.0859"/><line style="stroke:#181818;stroke-width:1.0;" x1="332" x2="332" y1="760.0859" y2="773.0859"/><line style="stroke:#181818;stroke-width:1.0;" x1="291" x2="332" y1="773.0859" y2="773.0859"/><polygon fill="#181818" points="301,769.0859,291,773.0859,301,777.0859,297,773.0859" style="stroke:#181818;stroke-width:1.0;"/><text fill="#000000" font-family="sans-serif" font-size="13" font-weight="bold" lengthAdjust="spacing" textLength="14" x="297" y="755.2295">17</text><text fill="#000000" font-family="sans-serif" font-size="13" lengthAdjust="spacing" textLength="93" x="315" y="755.2295">Aggiorna pagina</text><line style="stroke:#181818;stroke-width:1.0;" x1="61" x2="71" y1="803.4375" y2="799.4375"/><line style="stroke:#181818;stroke-width:1.0;" x1="61" x2="71" y1="803.4375" y2="807.4375"/><line style="stroke:#181818;stroke-width:1.0;stroke-dasharray:2.0,2.0;" x1="60" x2="279" y1="803.4375" y2="803.4375"/><text fill="#000000" font-family="sans-serif" font-size="13" font-weight="bold" lengthAdjust="spacing" textLength="14" x="77" y="798.5811">18</text><text fill="#000000" font-family="sans-serif" font-size="13" lengthAdjust="spacing" textLength="146" x="95" y="798.5811">Mostra pagina aggiornata</text><line style="stroke:#000000;stroke-width:1.0;stroke-dasharray:2.0,2.0;" x1="20" x2="816.5" y1="837.4375" y2="837.4375"/><text fill="#000000" font-family="sans-serif" font-size="11" font-weight="bold" lengthAdjust="spacing" textLength="117" x="25" y="848.8564">[Recensione invalida]</text><line style="stroke:#181818;stroke-width:1.0;" x1="61" x2="71" y1="874.625" y2="870.625"/><line style="stroke:#181818;stroke-width:1.0;" x1="61" x2="71" y1="874.625" y2="878.625"/><line style="stroke:#181818;stroke-width:1.0;stroke-dasharray:2.0,2.0;" x1="60" x2="284" y1="874.625" y2="874.625"/><text fill="#000000" font-family="sans-serif" font-size="13" font-weight="bold" lengthAdjust="spacing" textLength="14" x="77" y="869.7686">19</text><text fill="#000000" font-family="sans-serif" font-size="13" lengthAdjust="spacing" textLength="144" x="95" y="869.7686">Mostra messaggio errore</text><!--MD5=[4e9a7ff9d551a50dfe5c4dfca2ef97c3]
@startuml SequenceDiagram
title Diagramma di Sequenza

skinparam ParticipantPadding 100

actor UTENTE as Utente
participant SISTEMA as Sistema
participant SUPABASE as Supabase

database DATABASE as Database
autonumber 1

Utente -> Sistema: Apre pagina Corsi
activate Sistema
Sistema ->> Supabase: Verifica autenticazione utente
deactivate Sistema
activate Supabase
Supabase - ->> Sistema: Risultati verifica autenticazione 
deactivate Supabase
activate Sistema
alt Utente non autenticato
    Sistema - ->> Utente: Mostra pagina di login
    |||
else Utente autenticato
    Sistema - ->> Utente: Mostra pagina Corsi

    Sistema - ->> Utente: Mostra pagina del corso
    Utente -> Sistema: Ricerca corso con filtri
    Sistema -> Database: Manda query al Database
    activate Database
    Database - ->> Sistema: Risultati query
    deactivate Database
    Sistema - ->> Utente: Mostra lista aggiornata ai corsi
    deactivate Sistema
    
    Utente -> Sistema: Apre pagina Corso
    activate Sistema
    Sistema - ->> Utente: Mostra pagina corso
    deactivate Sistema

    Utente -> Sistema: Scrive recensione
    activate Sistema
    Sistema -> Sistema: Controllo parole vietate\nnella recensione
    alt Recensione valida
        Sistema ->> Database: Inserimento recensione 
        activate Database
        Database - ->> Sistema: Conferma inserimento 
        deactivate Database
        Sistema -> Sistema: Aggiorna pagina
        Sistema - ->> Utente: Mostra pagina aggiornata
        |||
    else Recensione invalida
        Sistema - ->> Utente: Mostra messaggio errore
    
    deactivate Sistema
    end
end
@enduml

PlantUML version 1.2022.7(Mon Aug 22 19:01:30 CEST 2022)
(GPL source distribution)
Java Runtime: Java(TM) SE Runtime Environment
JVM: Java HotSpot(TM) 64-Bit Server VM
Default Encoding: UTF-8
Language: it
Country: IT
--></g></svg>