<?xml version="1.0" encoding="UTF-8" standalone="no"?><svg xmlns="http://www.w3.org/2000/svg" xmlns:xlink="http://www.w3.org/1999/xlink" contentStyleType="text/css" height="1251px" preserveAspectRatio="none" style="width:930px;height:1251px;background:#FFFFFF;" version="1.1" viewBox="0 0 930 1251" width="930px" zoomAndPan="magnify"><defs/><g><rect fill="none" height="27.6094" id="_title" style="stroke:none;stroke-width:1.0;" width="343" x="295" y="10"/><text fill="#000000" font-family="sans-serif" font-size="14" font-weight="bold" lengthAdjust="spacing" textLength="333" x="300" y="29.5332">Diagramma di Sequenza - Registrazione e Login</text><rect fill="#FFFFFF" height="167.1094" style="stroke:#181818;stroke-width:1.0;" width="10" x="336.5" y="153.5703"/><rect fill="#FFFFFF" height="46.7031" style="stroke:#181818;stroke-width:1.0;" width="10" x="618.5" y="273.9766"/><rect fill="#FFFFFF" height="688.8438" style="stroke:#181818;stroke-width:1.0;" width="10" x="618.5" y="471.4375"/><rect fill="#FFFFFF" height="123.7578" style="stroke:#181818;stroke-width:1.0;" width="10" x="623.5" y="1027.5234"/><rect fill="#FFFFFF" height="46.7031" style="stroke:#181818;stroke-width:1.0;" width="10" x="764.5" y="518.1406"/><rect fill="#FFFFFF" height="186.8125" style="stroke:#181818;stroke-width:1.0;" width="10" x="764.5" y="964.4688"/><rect fill="#FFFFFF" height="46.7031" style="stroke:#181818;stroke-width:1.0;" width="10" x="872.5" y="611.5469"/><rect fill="#FFFFFF" height="30.3516" style="stroke:#181818;stroke-width:1.0;" width="10" x="872.5" y="781.0078"/><rect fill="#FFFFFF" height="30.3516" style="stroke:#181818;stroke-width:1.0;" width="10" x="872.5" y="1074.2266"/><line style="stroke:#181818;stroke-width:0.5;stroke-dasharray:5.0,5.0;" x1="28" x2="28" y1="121.2188" y2="1169.2813"/><line style="stroke:#181818;stroke-width:0.5;stroke-dasharray:5.0,5.0;" x1="341.5" x2="341.5" y1="121.2188" y2="1169.2813"/><line style="stroke:#181818;stroke-width:0.5;stroke-dasharray:5.0,5.0;" x1="623.5" x2="623.5" y1="121.2188" y2="1169.2813"/><line style="stroke:#181818;stroke-width:0.5;stroke-dasharray:5.0,5.0;" x1="769" x2="769" y1="121.2188" y2="1169.2813"/><line style="stroke:#181818;stroke-width:0.5;stroke-dasharray:5.0,5.0;" x1="877" x2="877" y1="121.2188" y2="1169.2813"/><text fill="#000000" font-family="sans-serif" font-size="14" lengthAdjust="spacing" textLength="41" x="5" y="118.1426">Utente</text><ellipse cx="28.5" cy="52.1094" fill="#E2E2F0" rx="8" ry="8" style="stroke:#181818;stroke-width:0.5;"/><path d="M28.5,60.1094 L28.5,87.1094 M15.5,68.1094 L41.5,68.1094 M28.5,87.1094 L15.5,102.1094 M28.5,87.1094 L41.5,102.1094 " fill="none" style="stroke:#181818;stroke-width:0.5;"/><text fill="#000000" font-family="sans-serif" font-size="14" lengthAdjust="spacing" textLength="41" x="5" y="1182.8145">Utente</text><ellipse cx="28.5" cy="1194.3906" fill="#E2E2F0" rx="8" ry="8" style="stroke:#181818;stroke-width:0.5;"/><path d="M28.5,1202.3906 L28.5,1229.3906 M15.5,1210.3906 L41.5,1210.3906 M28.5,1229.3906 L15.5,1244.3906 M28.5,1229.3906 L41.5,1244.3906 " fill="none" style="stroke:#181818;stroke-width:0.5;"/><rect fill="#E2E2F0" height="31.6094" rx="2.5" ry="2.5" style="stroke:#181818;stroke-width:0.5;" width="150" x="266.5" y="88.6094"/><text fill="#000000" font-family="sans-serif" font-size="14" lengthAdjust="spacing" textLength="136" x="273.5" y="110.1426">Interfaccia Utente (UI)</text><rect fill="#E2E2F0" height="31.6094" rx="2.5" ry="2.5" style="stroke:#181818;stroke-width:0.5;" width="150" x="266.5" y="1168.2813"/><text fill="#000000" font-family="sans-serif" font-size="14" lengthAdjust="spacing" textLength="136" x="273.5" y="1189.8145">Interfaccia Utente (UI)</text><rect fill="#E2E2F0" height="31.6094" rx="2.5" ry="2.5" style="stroke:#181818;stroke-width:0.5;" width="78" x="584.5" y="88.6094"/><text fill="#000000" font-family="sans-serif" font-size="14" lengthAdjust="spacing" textLength="64" x="591.5" y="110.1426">Supabase</text><rect fill="#E2E2F0" height="31.6094" rx="2.5" ry="2.5" style="stroke:#181818;stroke-width:0.5;" width="78" x="584.5" y="1168.2813"/><text fill="#000000" font-family="sans-serif" font-size="14" lengthAdjust="spacing" textLength="64" x="591.5" y="1189.8145">Supabase</text><rect fill="#E2E2F0" height="31.6094" rx="2.5" ry="2.5" style="stroke:#181818;stroke-width:0.5;" width="93" x="723" y="88.6094"/><text fill="#000000" font-family="sans-serif" font-size="14" lengthAdjust="spacing" textLength="79" x="730" y="110.1426">Email Utente</text><rect fill="#E2E2F0" height="31.6094" rx="2.5" ry="2.5" style="stroke:#181818;stroke-width:0.5;" width="93" x="723" y="1168.2813"/><text fill="#000000" font-family="sans-serif" font-size="14" lengthAdjust="spacing" textLength="79" x="730" y="1189.8145">Email Utente</text><text fill="#000000" font-family="sans-serif" font-size="14" lengthAdjust="spacing" textLength="97" x="826" y="118.1426">Supabase (DB)</text><path d="M859.5,67.6094 C859.5,57.6094 877.5,57.6094 877.5,57.6094 C877.5,57.6094 895.5,57.6094 895.5,67.6094 L895.5,93.6094 C895.5,103.6094 877.5,103.6094 877.5,103.6094 C877.5,103.6094 859.5,103.6094 859.5,93.6094 L859.5,67.6094 " fill="#E2E2F0" style="stroke:#181818;stroke-width:1.5;"/><path d="M859.5,67.6094 C859.5,77.6094 877.5,77.6094 877.5,77.6094 C877.5,77.6094 895.5,77.6094 895.5,67.6094 " fill="none" style="stroke:#181818;stroke-width:1.5;"/><text fill="#000000" font-family="sans-serif" font-size="14" lengthAdjust="spacing" textLength="97" x="826" y="1182.8145">Supabase (DB)</text><path d="M859.5,1195.8906 C859.5,1185.8906 877.5,1185.8906 877.5,1185.8906 C877.5,1185.8906 895.5,1185.8906 895.5,1195.8906 L895.5,1221.8906 C895.5,1231.8906 877.5,1231.8906 877.5,1231.8906 C877.5,1231.8906 859.5,1231.8906 859.5,1221.8906 L859.5,1195.8906 " fill="#E2E2F0" style="stroke:#181818;stroke-width:1.5;"/><path d="M859.5,1195.8906 C859.5,1205.8906 877.5,1205.8906 877.5,1205.8906 C877.5,1205.8906 895.5,1205.8906 895.5,1195.8906 " fill="none" style="stroke:#181818;stroke-width:1.5;"/><rect fill="#FFFFFF" height="167.1094" style="stroke:#181818;stroke-width:1.0;" width="10" x="336.5" y="153.5703"/><rect fill="#FFFFFF" height="46.7031" style="stroke:#181818;stroke-width:1.0;" width="10" x="618.5" y="273.9766"/><rect fill="#FFFFFF" height="688.8438" style="stroke:#181818;stroke-width:1.0;" width="10" x="618.5" y="471.4375"/><rect fill="#FFFFFF" height="123.7578" style="stroke:#181818;stroke-width:1.0;" width="10" x="623.5" y="1027.5234"/><rect fill="#FFFFFF" height="46.7031" style="stroke:#181818;stroke-width:1.0;" width="10" x="764.5" y="518.1406"/><rect fill="#FFFFFF" height="186.8125" style="stroke:#181818;stroke-width:1.0;" width="10" x="764.5" y="964.4688"/><rect fill="#FFFFFF" height="46.7031" style="stroke:#181818;stroke-width:1.0;" width="10" x="872.5" y="611.5469"/><rect fill="#FFFFFF" height="30.3516" style="stroke:#181818;stroke-width:1.0;" width="10" x="872.5" y="781.0078"/><rect fill="#FFFFFF" height="30.3516" style="stroke:#181818;stroke-width:1.0;" width="10" x="872.5" y="1074.2266"/><polygon fill="#181818" points="324.5,149.5703,334.5,153.5703,324.5,157.5703,328.5,153.5703" style="stroke:#181818;stroke-width:1.0;"/><line style="stroke:#181818;stroke-width:1.0;" x1="28.5" x2="330.5" y1="153.5703" y2="153.5703"/><text fill="#000000" font-family="sans-serif" font-size="13" lengthAdjust="spacing" textLength="152" x="35.5" y="148.7139">Clicca sul tasto d'accesso</text><line style="stroke:#181818;stroke-width:1.0;" x1="346.5" x2="388.5" y1="183.9219" y2="183.9219"/><line style="stroke:#181818;stroke-width:1.0;" x1="388.5" x2="388.5" y1="183.9219" y2="196.9219"/><line style="stroke:#181818;stroke-width:1.0;" x1="347.5" x2="388.5" y1="196.9219" y2="196.9219"/><polygon fill="#181818" points="357.5,192.9219,347.5,196.9219,357.5,200.9219,353.5,196.9219" style="stroke:#181818;stroke-width:1.0;"/><text fill="#000000" font-family="sans-serif" font-size="13" lengthAdjust="spacing" textLength="133" x="353.5" y="179.0654">Mostra Pagina di Login</text><polygon fill="#181818" points="324.5,223.2734,334.5,227.2734,324.5,231.2734,328.5,227.2734" style="stroke:#181818;stroke-width:1.0;"/><line style="stroke:#181818;stroke-width:1.0;" x1="28.5" x2="330.5" y1="227.2734" y2="227.2734"/><text fill="#000000" font-family="sans-serif" font-size="13" lengthAdjust="spacing" textLength="220" x="35.5" y="222.417">Inserisce credenziali e tenta l'accesso</text><polygon fill="#181818" points="606.5,269.9766,616.5,273.9766,606.5,277.9766,610.5,273.9766" style="stroke:#181818;stroke-width:1.0;"/><line style="stroke:#181818;stroke-width:1.0;" x1="346.5" x2="612.5" y1="273.9766" y2="273.9766"/><text fill="#000000" font-family="sans-serif" font-size="13" lengthAdjust="spacing" textLength="121" x="353.5" y="252.7686">Richiesta di accesso</text><text fill="#000000" font-family="sans-serif" font-size="13" lengthAdjust="spacing" textLength="193" x="353.5" y="269.1201">con credenziali (email, password)</text><polygon fill="#181818" points="352.5,316.6797,342.5,320.6797,352.5,324.6797,348.5,320.6797" style="stroke:#181818;stroke-width:1.0;"/><line style="stroke:#181818;stroke-width:1.0;stroke-dasharray:2.0,2.0;" x1="346.5" x2="622.5" y1="320.6797" y2="320.6797"/><text fill="#000000" font-family="sans-serif" font-size="13" lengthAdjust="spacing" textLength="96" x="358.5" y="299.4717">Accesso Negato</text><text fill="#000000" font-family="sans-serif" font-size="13" lengthAdjust="spacing" textLength="130" x="358.5" y="315.8232">Account non esistente</text><polygon fill="#181818" points="329.5,347.0313,339.5,351.0313,329.5,355.0313,333.5,351.0313" style="stroke:#181818;stroke-width:1.0;"/><line style="stroke:#181818;stroke-width:1.0;" x1="28.5" x2="335.5" y1="351.0313" y2="351.0313"/><text fill="#000000" font-family="sans-serif" font-size="13" lengthAdjust="spacing" textLength="152" x="35.5" y="346.1748">Clicca sul tasto d'accesso</text><polygon fill="#181818" points="329.5,377.3828,339.5,381.3828,329.5,385.3828,333.5,381.3828" style="stroke:#181818;stroke-width:1.0;"/><line style="stroke:#181818;stroke-width:1.0;" x1="28.5" x2="335.5" y1="381.3828" y2="381.3828"/><text fill="#000000" font-family="sans-serif" font-size="13" lengthAdjust="spacing" textLength="289" x="35.5" y="376.5264">Clicca su "Non hai ancora un account? Registrati"</text><line style="stroke:#181818;stroke-width:1.0;" x1="341.5" x2="383.5" y1="411.7344" y2="411.7344"/><line style="stroke:#181818;stroke-width:1.0;" x1="383.5" x2="383.5" y1="411.7344" y2="424.7344"/><line style="stroke:#181818;stroke-width:1.0;" x1="342.5" x2="383.5" y1="424.7344" y2="424.7344"/><polygon fill="#181818" points="352.5,420.7344,342.5,424.7344,352.5,428.7344,348.5,424.7344" style="stroke:#181818;stroke-width:1.0;"/><text fill="#000000" font-family="sans-serif" font-size="13" lengthAdjust="spacing" textLength="181" x="348.5" y="406.8779">Mostra Pagina di Registrazione</text><polygon fill="#181818" points="606.5,467.4375,616.5,471.4375,606.5,475.4375,610.5,471.4375" style="stroke:#181818;stroke-width:1.0;"/><line style="stroke:#181818;stroke-width:1.0;" x1="341.5" x2="612.5" y1="471.4375" y2="471.4375"/><text fill="#000000" font-family="sans-serif" font-size="13" lengthAdjust="spacing" textLength="146" x="348.5" y="450.2295">Richiesta di registrazione</text><text fill="#000000" font-family="sans-serif" font-size="13" lengthAdjust="spacing" textLength="258" x="348.5" y="466.5811">con credenziali (username, email, password)</text><polygon fill="#181818" points="752.5,514.1406,762.5,518.1406,752.5,522.1406,756.5,518.1406" style="stroke:#181818;stroke-width:1.0;"/><line style="stroke:#181818;stroke-width:1.0;" x1="628.5" x2="758.5" y1="518.1406" y2="518.1406"/><text fill="#000000" font-family="sans-serif" font-size="13" lengthAdjust="spacing" textLength="117" x="635.5" y="496.9326">Invia email di verifica</text><text fill="#000000" font-family="sans-serif" font-size="13" lengthAdjust="spacing" textLength="102" x="635.5" y="513.2842">all'indirizzo fornito</text><polygon fill="#181818" points="39.5,560.8438,29.5,564.8438,39.5,568.8438,35.5,564.8438" style="stroke:#181818;stroke-width:1.0;"/><line style="stroke:#181818;stroke-width:1.0;stroke-dasharray:2.0,2.0;" x1="33.5" x2="768.5" y1="564.8438" y2="564.8438"/><text fill="#000000" font-family="sans-serif" font-size="13" lengthAdjust="spacing" textLength="107" x="45.5" y="543.6357">Mostra messaggio</text><text fill="#000000" font-family="sans-serif" font-size="13" lengthAdjust="spacing" textLength="232" x="45.5" y="559.9873">"Controlla l'indirizzo di posta elettronica"</text><polygon fill="#181818" points="860.5,607.5469,870.5,611.5469,860.5,615.5469,864.5,611.5469" style="stroke:#181818;stroke-width:1.0;"/><line style="stroke:#181818;stroke-width:1.0;stroke-dasharray:2.0,2.0;" x1="628.5" x2="866.5" y1="611.5469" y2="611.5469"/><text fill="#000000" font-family="sans-serif" font-size="13" lengthAdjust="spacing" textLength="137" x="635.5" y="590.3389">Aggiungi nuovo account</text><text fill="#000000" font-family="sans-serif" font-size="13" lengthAdjust="spacing" textLength="173" x="635.5" y="606.6904">al database con stato 'waiting'</text><polygon fill="#181818" points="39.5,654.25,29.5,658.25,39.5,662.25,35.5,658.25" style="stroke:#181818;stroke-width:1.0;"/><line style="stroke:#181818;stroke-width:1.0;stroke-dasharray:2.0,2.0;" x1="33.5" x2="876.5" y1="658.25" y2="658.25"/><text fill="#000000" font-family="sans-serif" font-size="13" lengthAdjust="spacing" textLength="117" x="45.5" y="637.042">Invia email di verifica</text><text fill="#000000" font-family="sans-serif" font-size="13" lengthAdjust="spacing" textLength="116" x="45.5" y="653.3936">con link di conferma</text><line style="stroke:#181818;stroke-width:1.0;stroke-dasharray:2.0,2.0;" x1="628.5" x2="670.5" y1="704.9531" y2="704.9531"/><line style="stroke:#181818;stroke-width:1.0;stroke-dasharray:2.0,2.0;" x1="670.5" x2="670.5" y1="704.9531" y2="717.9531"/><line style="stroke:#181818;stroke-width:1.0;stroke-dasharray:2.0,2.0;" x1="629.5" x2="670.5" y1="717.9531" y2="717.9531"/><polygon fill="#181818" points="639.5,713.9531,629.5,717.9531,639.5,721.9531,635.5,717.9531" style="stroke:#181818;stroke-width:1.0;"/><text fill="#000000" font-family="sans-serif" font-size="13" lengthAdjust="spacing" textLength="84" x="635.5" y="683.7451">Controlla stato</text><text fill="#000000" font-family="sans-serif" font-size="13" lengthAdjust="spacing" textLength="74" x="635.5" y="700.0967">verifica email</text><polygon fill="#181818" points="860.5,777.0078,870.5,781.0078,860.5,785.0078,864.5,781.0078" style="stroke:#181818;stroke-width:1.0;"/><line style="stroke:#181818;stroke-width:1.0;stroke-dasharray:2.0,2.0;" x1="628.5" x2="866.5" y1="781.0078" y2="781.0078"/><text fill="#000000" font-family="sans-serif" font-size="13" lengthAdjust="spacing" textLength="84" x="635.5" y="743.4482">Aggiorna stato</text><text fill="#000000" font-family="sans-serif" font-size="13" lengthAdjust="spacing" textLength="107" x="635.5" y="759.7998">se email verificata,</text><text fill="#000000" font-family="sans-serif" font-size="13" lengthAdjust="spacing" textLength="121" x="639.5" y="776.1514">rimuovi stato 'waiting'</text><polygon fill="#181818" points="639.5,807.3594,629.5,811.3594,639.5,815.3594,635.5,811.3594" style="stroke:#181818;stroke-width:1.0;"/><line style="stroke:#181818;stroke-width:1.0;stroke-dasharray:2.0,2.0;" x1="633.5" x2="876.5" y1="811.3594" y2="811.3594"/><text fill="#000000" font-family="sans-serif" font-size="13" lengthAdjust="spacing" textLength="155" x="645.5" y="806.5029">Aggiornamento completato</text><polygon fill="#181818" points="39.5,854.0625,29.5,858.0625,39.5,862.0625,35.5,858.0625" style="stroke:#181818;stroke-width:1.0;"/><line style="stroke:#181818;stroke-width:1.0;stroke-dasharray:2.0,2.0;" x1="33.5" x2="617.5" y1="858.0625" y2="858.0625"/><text fill="#000000" font-family="sans-serif" font-size="13" lengthAdjust="spacing" textLength="131" x="45.5" y="836.8545">Invia email di conferma</text><text fill="#000000" font-family="sans-serif" font-size="13" lengthAdjust="spacing" textLength="122" x="45.5" y="853.2061">dell'account verificato</text><line style="stroke:#181818;stroke-width:1.0;" x1="28.5" x2="70.5" y1="904.7656" y2="904.7656"/><line style="stroke:#181818;stroke-width:1.0;" x1="70.5" x2="70.5" y1="904.7656" y2="917.7656"/><line style="stroke:#181818;stroke-width:1.0;" x1="29.5" x2="70.5" y1="917.7656" y2="917.7656"/><polygon fill="#181818" points="39.5,913.7656,29.5,917.7656,39.5,921.7656,35.5,917.7656" style="stroke:#181818;stroke-width:1.0;"/><text fill="#000000" font-family="sans-serif" font-size="13" lengthAdjust="spacing" textLength="108" x="35.5" y="883.5576">Controlla la propria</text><text fill="#000000" font-family="sans-serif" font-size="13" lengthAdjust="spacing" textLength="96" x="35.5" y="899.9092">posta elettronica</text><polygon fill="#181818" points="752.5,960.4688,762.5,964.4688,752.5,968.4688,756.5,964.4688" style="stroke:#181818;stroke-width:1.0;"/><line style="stroke:#181818;stroke-width:1.0;" x1="28.5" x2="758.5" y1="964.4688" y2="964.4688"/><text fill="#000000" font-family="sans-serif" font-size="13" lengthAdjust="spacing" textLength="81" x="35.5" y="943.2607">Clicca sul link</text><text fill="#000000" font-family="sans-serif" font-size="13" lengthAdjust="spacing" textLength="110" x="35.5" y="959.6123">di verifica nell'email</text><polygon fill="#181818" points="644.5,1023.5234,634.5,1027.5234,644.5,1031.5234,640.5,1027.5234" style="stroke:#181818;stroke-width:1.0;"/><line style="stroke:#181818;stroke-width:1.0;stroke-dasharray:2.0,2.0;" x1="638.5" x2="763.5" y1="1027.5234" y2="1027.5234"/><text fill="#000000" font-family="sans-serif" font-size="13" lengthAdjust="spacing" textLength="98" x="650.5" y="989.9639">Conferma verifica</text><text fill="#000000" font-family="sans-serif" font-size="13" lengthAdjust="spacing" textLength="86" x="650.5" y="1006.3154">e cambia stato</text><text fill="#000000" font-family="sans-serif" font-size="13" lengthAdjust="spacing" textLength="65" x="650.5" y="1022.667">a 'verificato'</text><polygon fill="#181818" points="860.5,1070.2266,870.5,1074.2266,860.5,1078.2266,864.5,1074.2266" style="stroke:#181818;stroke-width:1.0;"/><line style="stroke:#181818;stroke-width:1.0;stroke-dasharray:2.0,2.0;" x1="633.5" x2="866.5" y1="1074.2266" y2="1074.2266"/><text fill="#000000" font-family="sans-serif" font-size="13" lengthAdjust="spacing" textLength="84" x="640.5" y="1053.0186">Aggiorna stato</text><text fill="#000000" font-family="sans-serif" font-size="13" lengthAdjust="spacing" textLength="137" x="640.5" y="1069.3701">dell'account a 'verificato'</text><polygon fill="#181818" points="644.5,1100.5781,634.5,1104.5781,644.5,1108.5781,640.5,1104.5781" style="stroke:#181818;stroke-width:1.0;"/><line style="stroke:#181818;stroke-width:1.0;stroke-dasharray:2.0,2.0;" x1="638.5" x2="876.5" y1="1104.5781" y2="1104.5781"/><text fill="#000000" font-family="sans-serif" font-size="13" lengthAdjust="spacing" textLength="155" x="650.5" y="1099.7217">Aggiornamento completato</text><polygon fill="#181818" points="39.5,1147.2813,29.5,1151.2813,39.5,1155.2813,35.5,1151.2813" style="stroke:#181818;stroke-width:1.0;"/><line style="stroke:#181818;stroke-width:1.0;stroke-dasharray:2.0,2.0;" x1="33.5" x2="617.5" y1="1151.2813" y2="1151.2813"/><text fill="#000000" font-family="sans-serif" font-size="13" lengthAdjust="spacing" textLength="115" x="45.5" y="1130.0732">Accesso consentito</text><text fill="#000000" font-family="sans-serif" font-size="13" lengthAdjust="spacing" textLength="112" x="45.5" y="1146.4248">Mostra Home Page</text><!--MD5=[7b5c3c62665691dabefc0b308e8a6172]
@startuml
title Diagramma di Sequenza - Registrazione e Login

actor Utente
participant "Interfaccia Utente (UI)" as UI
participant Supabase
participant "Email Utente" as EmailService
database "Supabase (DB)" as Database

Utente -> UI: Clicca sul tasto d'accesso
activate UI
UI -> UI: Mostra Pagina di Login
Utente -> UI: Inserisce credenziali e tenta l'accesso
UI -> Supabase: Richiesta di accesso\ncon credenziali (email, password)
activate Supabase
Supabase - -> UI: Accesso Negato\nAccount non esistente
deactivate Supabase
deactivate UI
Utente -> UI: Clicca sul tasto d'accesso
Utente -> UI: Clicca su "Non hai ancora un account? Registrati"

UI -> UI: Mostra Pagina di Registrazione
UI -> Supabase: Richiesta di registrazione\ncon credenziali (username, email, password)
activate Supabase
Supabase -> EmailService: Invia email di verifica\nall'indirizzo fornito
activate EmailService
EmailService - -> Utente: Mostra messaggio\n"Controlla l'indirizzo di posta elettronica"
deactivate EmailService
Supabase - -> Database: Aggiungi nuovo account\nal database con stato 'waiting'
activate Database
Database - -> Utente: Invia email di verifica\ncon link di conferma
deactivate Database
Supabase - -> Supabase: Controlla stato\nverifica email 
Supabase - -> Database: Aggiorna stato\nse email verificata,\n rimuovi stato 'waiting'
activate Database
Database - -> Supabase: Aggiornamento completato
deactivate Database
Supabase - -> Utente: Invia email di conferma\ndell'account verificato
Utente -> Utente: Controlla la propria\nposta elettronica
Utente -> EmailService: Clicca sul link\ndi verifica nell'email
activate EmailService
EmailService - -> Supabase: Conferma verifica\ne cambia stato\na 'verificato'
activate Supabase
Supabase - -> Database: Aggiorna stato\ndell'account a 'verificato'
activate Database
Database - -> Supabase: Aggiornamento completato
deactivate Database
Supabase - -> Utente: Accesso consentito\nMostra Home Page
deactivate Supabase
deactivate EmailService
@enduml

PlantUML version 1.2022.7(Mon Aug 22 19:01:30 CEST 2022)
(GPL source distribution)
Java Runtime: Java(TM) SE Runtime Environment
JVM: Java HotSpot(TM) 64-Bit Server VM
Default Encoding: UTF-8
Language: it
Country: IT
--></g></svg>