<?xml version="1.0" encoding="UTF-8" standalone="no"?><svg xmlns="http://www.w3.org/2000/svg" xmlns:xlink="http://www.w3.org/1999/xlink" contentStyleType="text/css" height="1747px" preserveAspectRatio="none" style="width:2138px;height:1747px;background:#FFFFFF;" version="1.1" viewBox="0 0 2138 1747" width="2138px" zoomAndPan="magnify"><defs/><g><ellipse cx="347" cy="50.0957" fill="#222222" rx="10" ry="10" style="stroke:#222222;stroke-width:1.0;"/><rect fill="#F1F1F1" height="35.0938" rx="12.5" ry="12.5" style="stroke:#181818;stroke-width:0.5;" width="199" x="247.5" y="80.0957"/><text fill="#000000" font-family="sans-serif" font-size="12" lengthAdjust="spacing" textLength="179" x="257.5" y="102.5527">Utente clicca sul tasto d'accesso</text><rect fill="#F1F1F1" height="35.0938" rx="12.5" ry="12.5" style="stroke:#181818;stroke-width:0.5;" width="136" x="279" y="190.2832"/><text fill="#000000" font-family="sans-serif" font-size="12" lengthAdjust="spacing" textLength="116" x="289" y="212.7402">Inserisce Credenziali</text><rect fill="#F1F1F1" height="50.1875" rx="12.5" ry="12.5" style="stroke:#181818;stroke-width:0.5;" width="234" x="21" y="454.6582"/><text fill="#000000" font-family="sans-serif" font-size="12" lengthAdjust="spacing" textLength="100" x="31" y="477.1152">Preme il pulsante:</text><text fill="#000000" font-family="sans-serif" font-size="12" lengthAdjust="spacing" textLength="214" x="31" y="492.209">'Non hai ancora un account? Registrati'</text><rect fill="#F1F1F1" height="35.0938" rx="12.5" ry="12.5" style="stroke:#181818;stroke-width:0.5;" width="133" x="71.5" y="667.9395"/><text fill="#000000" font-family="sans-serif" font-size="12" lengthAdjust="spacing" textLength="113" x="81.5" y="690.3965">Inserisce credenziali</text><polygon fill="#F1F1F1" points="138,623.9395,150,635.9395,138,647.9395,126,635.9395,138,623.9395" style="stroke:#181818;stroke-width:0.5;"/><rect fill="#F1F1F1" height="35.0938" rx="12.5" ry="12.5" style="stroke:#181818;stroke-width:0.5;" width="169" x="53.5" y="847.8369"/><text fill="#000000" font-family="sans-serif" font-size="12" lengthAdjust="spacing" textLength="149" x="63.5" y="870.2939">Preme Pulsante 'Registrati'</text><polygon fill="#F1F1F1" points="138,579.9395,150,591.9395,138,603.9395,126,591.9395,138,579.9395" style="stroke:#181818;stroke-width:0.5;"/><rect fill="#F1F1F1" height="35.0938" rx="12.5" ry="12.5" style="stroke:#181818;stroke-width:0.5;" width="121" x="77.5" y="1201.5586"/><text fill="#000000" font-family="sans-serif" font-size="12" lengthAdjust="spacing" textLength="101" x="87.5" y="1224.0156">Apre link di verifica</text><line style="stroke:#000000;stroke-width:1.5;" x1="15" x2="15" y1="12.4551" y2="1735.5859"/><rect fill="#F1F1F1" height="35.0938" rx="12.5" ry="12.5" style="stroke:#181818;stroke-width:0.5;" width="149" x="711" y="135.1895"/><text fill="#000000" font-family="sans-serif" font-size="12" lengthAdjust="spacing" textLength="129" x="721" y="157.6465">Mostra Pagina Accesso</text><rect fill="#F1F1F1" height="35.0938" rx="12.5" ry="12.5" style="stroke:#181818;stroke-width:0.5;" width="132" x="719.5" y="245.377"/><text fill="#000000" font-family="sans-serif" font-size="12" lengthAdjust="spacing" textLength="112" x="729.5" y="267.834">Tentativo di Accesso</text><rect fill="#F1F1F1" height="35.0938" rx="12.5" ry="12.5" style="stroke:#181818;stroke-width:0.5;" width="240" x="456.5" y="399.5645"/><text fill="#000000" font-family="sans-serif" font-size="12" lengthAdjust="spacing" textLength="220" x="466.5" y="422.0215">Mostra messaggio di errato inserimento</text><rect fill="#F1F1F1" height="35.0938" rx="12.5" ry="12.5" style="stroke:#181818;stroke-width:0.5;" width="178" x="487.5" y="524.8457"/><text fill="#000000" font-family="sans-serif" font-size="12" lengthAdjust="spacing" textLength="158" x="497.5" y="547.3027">Mostra Pagina Registrazione</text><rect fill="#F1F1F1" height="35.0938" rx="12.5" ry="12.5" style="stroke:#181818;stroke-width:0.5;" width="135" x="509" y="730.5332"/><text fill="#000000" font-family="sans-serif" font-size="12" lengthAdjust="spacing" textLength="115" x="519" y="752.9902">Controllo Credenziali</text><polygon fill="#F1F1F1" points="530.5,785.627,622.5,785.627,634.5,797.627,622.5,809.627,530.5,809.627,518.5,797.627,530.5,785.627" style="stroke:#181818;stroke-width:0.5;"/><text fill="#000000" font-family="sans-serif" font-size="11" lengthAdjust="spacing" textLength="92" x="530.5" y="802.1279">Credenziali Valide?</text><text fill="#000000" font-family="sans-serif" font-size="11" lengthAdjust="spacing" textLength="13" x="634.5" y="795.21">No</text><rect fill="#F1F1F1" height="35.0938" rx="12.5" ry="12.5" style="stroke:#181818;stroke-width:0.5;" width="161" x="496" y="902.9307"/><text fill="#000000" font-family="sans-serif" font-size="12" lengthAdjust="spacing" textLength="141" x="506" y="925.3877">Richesta di Registrazione</text><rect fill="#F1F1F1" height="35.0938" rx="12.5" ry="12.5" style="stroke:#181818;stroke-width:0.5;" width="126" x="513.5" y="1256.6523"/><text fill="#000000" font-family="sans-serif" font-size="12" lengthAdjust="spacing" textLength="106" x="523.5" y="1279.1094">Richiesta di verifica</text><rect fill="#F1F1F1" height="35.0938" rx="12.5" ry="12.5" style="stroke:#181818;stroke-width:0.5;" width="172" x="490.5" y="1360.6641"/><text fill="#000000" font-family="sans-serif" font-size="12" lengthAdjust="spacing" textLength="152" x="500.5" y="1383.1211">Mostra messaggio di errore</text><ellipse cx="576.5" cy="1428.3047" fill="none" rx="11" ry="11" style="stroke:#222222;stroke-width:1.0;"/><ellipse cx="576.5" cy="1428.3047" fill="#222222" rx="6" ry="6" style="stroke:#111111;stroke-width:1.0;"/><rect fill="#F1F1F1" height="35.0938" rx="12.5" ry="12.5" style="stroke:#181818;stroke-width:0.5;" width="209" x="890" y="399.5645"/><text fill="#000000" font-family="sans-serif" font-size="12" lengthAdjust="spacing" textLength="189" x="900" y="422.0215">Reindirizza alla pagina precedente</text><ellipse cx="994.5" cy="465.6582" fill="none" rx="11" ry="11" style="stroke:#222222;stroke-width:1.0;"/><ellipse cx="994.5" cy="465.6582" fill="#222222" rx="6" ry="6" style="stroke:#111111;stroke-width:1.0;"/><rect fill="#F1F1F1" height="35.0938" rx="12.5" ry="12.5" style="stroke:#181818;stroke-width:0.5;" width="209" x="681" y="1658.4922"/><text fill="#000000" font-family="sans-serif" font-size="12" lengthAdjust="spacing" textLength="189" x="691" y="1680.9492">Reindirizza alla pagina precedente</text><ellipse cx="785.5" cy="1724.5859" fill="none" rx="11" ry="11" style="stroke:#222222;stroke-width:1.0;"/><ellipse cx="785.5" cy="1724.5859" fill="#222222" rx="6" ry="6" style="stroke:#111111;stroke-width:1.0;"/><line style="stroke:#000000;stroke-width:1.5;" x1="450.5" x2="450.5" y1="12.4551" y2="1735.5859"/><rect fill="#F1F1F1" height="35.0938" rx="12.5" ry="12.5" style="stroke:#181818;stroke-width:0.5;" width="204" x="1423.5" y="300.4707"/><text fill="#000000" font-family="sans-serif" font-size="12" lengthAdjust="spacing" textLength="184" x="1433.5" y="322.9277">Richesta Accesso con credenziali</text><polygon fill="#F1F1F1" points="1481.5,355.5645,1569.5,355.5645,1581.5,367.5645,1569.5,379.5645,1481.5,379.5645,1469.5,367.5645,1481.5,355.5645" style="stroke:#181818;stroke-width:0.5;"/><text fill="#000000" font-family="sans-serif" font-size="11" lengthAdjust="spacing" textLength="88" x="1481.5" y="372.0654">Account esistente</text><text fill="#000000" font-family="sans-serif" font-size="11" lengthAdjust="spacing" textLength="13" x="1456.5" y="365.1475">No</text><text fill="#000000" font-family="sans-serif" font-size="11" lengthAdjust="spacing" textLength="9" x="1581.5" y="365.1475">Si</text><rect fill="#F1F1F1" height="35.0938" rx="12.5" ry="12.5" style="stroke:#181818;stroke-width:0.5;" width="221" x="1206" y="958.0244"/><text fill="#000000" font-family="sans-serif" font-size="12" lengthAdjust="spacing" textLength="201" x="1216" y="980.4814">Registrazione con email e password</text><polygon fill="#F1F1F1" points="1272.5,1013.1182,1360.5,1013.1182,1372.5,1025.1182,1360.5,1037.1182,1272.5,1037.1182,1260.5,1025.1182,1272.5,1013.1182" style="stroke:#181818;stroke-width:0.5;"/><text fill="#000000" font-family="sans-serif" font-size="11" lengthAdjust="spacing" textLength="88" x="1272.5" y="1029.6191">Email è gia in uso?</text><text fill="#000000" font-family="sans-serif" font-size="11" lengthAdjust="spacing" textLength="9" x="1372.5" y="1022.7012">Si</text><rect fill="#F1F1F1" height="35.0938" rx="12.5" ry="12.5" style="stroke:#181818;stroke-width:0.5;" width="159" x="1451" y="779.5449"/><text fill="#000000" font-family="sans-serif" font-size="12" lengthAdjust="spacing" textLength="139" x="1461" y="802.002">Mostra messaggio errore</text><rect fill="#555555" height="6" rx="2.5" ry="2.5" style="stroke:#555555;stroke-width:1.0;" width="417" x="1109" y="1079.3711"/><rect fill="#F1F1F1" height="50.1875" rx="12.5" ry="12.5" style="stroke:#181818;stroke-width:0.5;" width="133" x="1121" y="1105.3711"/><text fill="#000000" font-family="sans-serif" font-size="12" lengthAdjust="spacing" textLength="113" x="1131" y="1127.8281">Invia email di verifica</text><text fill="#000000" font-family="sans-serif" font-size="12" lengthAdjust="spacing" textLength="96" x="1131" y="1142.9219">all'indirizzo fornito</text><rect fill="#555555" height="6" rx="2.5" ry="2.5" style="stroke:#555555;stroke-width:1.0;" width="417" x="1109" y="1175.5586"/><polygon fill="#F1F1F1" points="1278,1311.7461,1355,1311.7461,1367,1323.7461,1355,1335.7461,1278,1335.7461,1266,1323.7461,1278,1311.7461" style="stroke:#181818;stroke-width:0.5;"/><text fill="#000000" font-family="sans-serif" font-size="11" lengthAdjust="spacing" textLength="13" x="1320.5" y="1347.165">No</text><text fill="#000000" font-family="sans-serif" font-size="11" lengthAdjust="spacing" textLength="77" x="1278" y="1328.2471">Richiesta Valida</text><text fill="#000000" font-family="sans-serif" font-size="11" lengthAdjust="spacing" textLength="9" x="1367" y="1321.3291">Sì</text><rect fill="#555555" height="6" rx="2.5" ry="2.5" style="stroke:#555555;stroke-width:1.0;" width="404" x="1315" y="1481.3047"/><rect fill="#F1F1F1" height="35.0938" rx="12.5" ry="12.5" style="stroke:#181818;stroke-width:0.5;" width="219" x="1329" y="1542.3516"/><text fill="#000000" font-family="sans-serif" font-size="12" lengthAdjust="spacing" textLength="199" x="1339" y="1564.8086">Aggiornamento dati sessione utente</text><rect fill="#F1F1F1" height="35.0938" rx="12.5" ry="12.5" style="stroke:#181818;stroke-width:0.5;" width="116" x="1591" y="1507.3047"/><text fill="#000000" font-family="sans-serif" font-size="12" lengthAdjust="spacing" textLength="96" x="1601" y="1529.7617">Account Verificato</text><rect fill="#555555" height="6" rx="2.5" ry="2.5" style="stroke:#555555;stroke-width:1.0;" width="404" x="1315" y="1632.4922"/><line style="stroke:#000000;stroke-width:1.5;" x1="1103" x2="1103" y1="12.4551" y2="1735.5859"/><rect fill="#F1F1F1" height="35.0938" rx="12.5" ry="12.5" style="stroke:#181818;stroke-width:0.5;" width="230" x="1729" y="1112.918"/><text fill="#000000" font-family="sans-serif" font-size="12" lengthAdjust="spacing" textLength="210" x="1739" y="1135.375">Aggiunge account con stato di 'waiting'</text><rect fill="#F1F1F1" height="35.0938" rx="12.5" ry="12.5" style="stroke:#181818;stroke-width:0.5;" width="146" x="1969" y="1577.3984"/><text fill="#000000" font-family="sans-serif" font-size="12" lengthAdjust="spacing" textLength="126" x="1979" y="1599.8555">Rimuove Stato 'waiting'</text><line style="stroke:#000000;stroke-width:1.5;" x1="1723" x2="1723" y1="12.4551" y2="1735.5859"/><line style="stroke:#000000;stroke-width:1.5;" x1="2119" x2="2119" y1="12.4551" y2="1735.5859"/><line style="stroke:#181818;stroke-width:1.0;" x1="347" x2="347" y1="60.0957" y2="80.0957"/><polygon fill="#181818" points="343,70.0957,347,80.0957,351,70.0957,347,74.0957" style="stroke:#181818;stroke-width:1.0;"/><line style="stroke:#181818;stroke-width:1.0;" x1="138" x2="138" y1="647.9395" y2="667.9395"/><polygon fill="#181818" points="134,657.9395,138,667.9395,142,657.9395,138,661.9395" style="stroke:#181818;stroke-width:1.0;"/><line style="stroke:#181818;stroke-width:1.0;" x1="138" x2="138" y1="603.9395" y2="623.9395"/><polygon fill="#181818" points="134,613.9395,138,623.9395,142,613.9395,138,617.9395" style="stroke:#181818;stroke-width:1.0;"/><line style="stroke:#181818;stroke-width:1.0;" x1="576.5" x2="576.5" y1="765.627" y2="785.627"/><polygon fill="#181818" points="572.5,775.627,576.5,785.627,580.5,775.627,576.5,779.627" style="stroke:#181818;stroke-width:1.0;"/><line style="stroke:#181818;stroke-width:1.0;" x1="576.5" x2="576.5" y1="1395.7578" y2="1417.3047"/><polygon fill="#181818" points="572.5,1407.3047,576.5,1417.3047,580.5,1407.3047,576.5,1411.3047" style="stroke:#181818;stroke-width:1.0;"/><line style="stroke:#181818;stroke-width:1.0;" x1="994.5" x2="994.5" y1="434.6582" y2="454.6582"/><polygon fill="#181818" points="990.5,444.6582,994.5,454.6582,998.5,444.6582,994.5,448.6582" style="stroke:#181818;stroke-width:1.0;"/><line style="stroke:#181818;stroke-width:1.0;" x1="785.5" x2="785.5" y1="1693.5859" y2="1713.5859"/><polygon fill="#181818" points="781.5,1703.5859,785.5,1713.5859,789.5,1703.5859,785.5,1707.5859" style="stroke:#181818;stroke-width:1.0;"/><line style="stroke:#181818;stroke-width:1.0;" x1="1372.5" x2="1530.5" y1="1025.1182" y2="1025.1182"/><line style="stroke:#181818;stroke-width:1.0;" x1="1530.5" x2="1530.5" y1="814.6387" y2="1025.1182"/><polygon fill="#181818" points="1526.5,824.6387,1530.5,814.6387,1534.5,824.6387,1530.5,820.6387" style="stroke:#181818;stroke-width:1.0;"/><line style="stroke:#181818;stroke-width:1.0;" x1="1316.5" x2="1316.5" y1="993.1182" y2="1013.1182"/><polygon fill="#181818" points="1312.5,1003.1182,1316.5,1013.1182,1320.5,1003.1182,1316.5,1007.1182" style="stroke:#181818;stroke-width:1.0;"/><line style="stroke:#181818;stroke-width:1.0;" x1="1187.5" x2="1187.5" y1="1085.3711" y2="1105.3711"/><polygon fill="#181818" points="1183.5,1095.3711,1187.5,1105.3711,1191.5,1095.3711,1187.5,1099.3711" style="stroke:#181818;stroke-width:1.0;"/><line style="stroke:#181818;stroke-width:1.0;" x1="1187.5" x2="1187.5" y1="1155.5586" y2="1175.5586"/><polygon fill="#181818" points="1183.5,1165.5586,1187.5,1175.5586,1191.5,1165.5586,1187.5,1169.5586" style="stroke:#181818;stroke-width:1.0;"/><line style="stroke:#181818;stroke-width:1.0;" x1="1316.5" x2="1316.5" y1="1037.1182" y2="1079.3711"/><polygon fill="#181818" points="1312.5,1069.3711,1316.5,1079.3711,1320.5,1069.3711,1316.5,1073.3711" style="stroke:#181818;stroke-width:1.0;"/><text fill="#000000" font-family="sans-serif" font-size="11" lengthAdjust="spacing" textLength="13" x="1320.5" y="1059.4541">No</text><line style="stroke:#181818;stroke-width:1.0;" x1="1367" x2="1525.5" y1="1323.7461" y2="1323.7461"/><polygon fill="#181818" points="1521.5,1405.7578,1525.5,1415.7578,1529.5,1405.7578,1525.5,1409.7578" style="stroke:#181818;stroke-width:1.0;"/><line style="stroke:#181818;stroke-width:1.0;" x1="1525.5" x2="1525.5" y1="1323.7461" y2="1481.3047"/><polygon fill="#181818" points="1521.5,1471.3047,1525.5,1481.3047,1529.5,1471.3047,1525.5,1475.3047" style="stroke:#181818;stroke-width:1.0;"/><line style="stroke:#181818;stroke-width:1.0;" x1="1525.5" x2="1525.5" y1="335.5645" y2="355.5645"/><polygon fill="#181818" points="1521.5,345.5645,1525.5,355.5645,1529.5,345.5645,1525.5,349.5645" style="stroke:#181818;stroke-width:1.0;"/><line style="stroke:#181818;stroke-width:1.0;" x1="1438.5" x2="1438.5" y1="1487.3047" y2="1542.3516"/><polygon fill="#181818" points="1434.5,1532.3516,1438.5,1542.3516,1442.5,1532.3516,1438.5,1536.3516" style="stroke:#181818;stroke-width:1.0;"/><line style="stroke:#181818;stroke-width:1.0;" x1="1649" x2="1649" y1="1487.3047" y2="1507.3047"/><polygon fill="#181818" points="1645,1497.3047,1649,1507.3047,1653,1497.3047,1649,1501.3047" style="stroke:#181818;stroke-width:1.0;"/><line style="stroke:#181818;stroke-width:1.0;" x1="1438.5" x2="1438.5" y1="1577.4453" y2="1632.4922"/><polygon fill="#181818" points="1434.5,1622.4922,1438.5,1632.4922,1442.5,1622.4922,1438.5,1626.4922" style="stroke:#181818;stroke-width:1.0;"/><line style="stroke:#181818;stroke-width:1.0;" x1="347" x2="347" y1="115.1895" y2="120.1895"/><line style="stroke:#181818;stroke-width:1.0;" x1="347" x2="785.5" y1="120.1895" y2="120.1895"/><line style="stroke:#181818;stroke-width:1.0;" x1="785.5" x2="785.5" y1="120.1895" y2="135.1895"/><polygon fill="#181818" points="781.5,125.1895,785.5,135.1895,789.5,125.1895,785.5,129.1895" style="stroke:#181818;stroke-width:1.0;"/><line style="stroke:#181818;stroke-width:1.0;" x1="785.5" x2="785.5" y1="170.2832" y2="175.2832"/><line style="stroke:#181818;stroke-width:1.0;" x1="785.5" x2="347" y1="175.2832" y2="175.2832"/><line style="stroke:#181818;stroke-width:1.0;" x1="347" x2="347" y1="175.2832" y2="190.2832"/><polygon fill="#181818" points="343,180.2832,347,190.2832,351,180.2832,347,184.2832" style="stroke:#181818;stroke-width:1.0;"/><line style="stroke:#181818;stroke-width:1.0;" x1="347" x2="347" y1="225.377" y2="230.377"/><line style="stroke:#181818;stroke-width:1.0;" x1="347" x2="785.5" y1="230.377" y2="230.377"/><line style="stroke:#181818;stroke-width:1.0;" x1="785.5" x2="785.5" y1="230.377" y2="245.377"/><polygon fill="#181818" points="781.5,235.377,785.5,245.377,789.5,235.377,785.5,239.377" style="stroke:#181818;stroke-width:1.0;"/><line style="stroke:#181818;stroke-width:1.0;" x1="785.5" x2="785.5" y1="280.4707" y2="285.4707"/><line style="stroke:#181818;stroke-width:1.0;" x1="785.5" x2="1525.5" y1="285.4707" y2="285.4707"/><line style="stroke:#181818;stroke-width:1.0;" x1="1525.5" x2="1525.5" y1="285.4707" y2="300.4707"/><polygon fill="#181818" points="1521.5,290.4707,1525.5,300.4707,1529.5,290.4707,1525.5,294.4707" style="stroke:#181818;stroke-width:1.0;"/><line style="stroke:#181818;stroke-width:1.0;" x1="576.5" x2="576.5" y1="434.6582" y2="439.6582"/><line style="stroke:#181818;stroke-width:1.0;" x1="576.5" x2="138" y1="439.6582" y2="439.6582"/><line style="stroke:#181818;stroke-width:1.0;" x1="138" x2="138" y1="439.6582" y2="454.6582"/><polygon fill="#181818" points="134,444.6582,138,454.6582,142,444.6582,138,448.6582" style="stroke:#181818;stroke-width:1.0;"/><line style="stroke:#181818;stroke-width:1.0;" x1="138" x2="138" y1="504.8457" y2="509.8457"/><line style="stroke:#181818;stroke-width:1.0;" x1="138" x2="576.5" y1="509.8457" y2="509.8457"/><line style="stroke:#181818;stroke-width:1.0;" x1="576.5" x2="576.5" y1="509.8457" y2="524.8457"/><polygon fill="#181818" points="572.5,514.8457,576.5,524.8457,580.5,514.8457,576.5,518.8457" style="stroke:#181818;stroke-width:1.0;"/><line style="stroke:#181818;stroke-width:1.0;" x1="138" x2="138" y1="703.0332" y2="713.0332"/><line style="stroke:#181818;stroke-width:1.0;" x1="138" x2="576.5" y1="713.0332" y2="713.0332"/><line style="stroke:#181818;stroke-width:1.0;" x1="576.5" x2="576.5" y1="713.0332" y2="730.5332"/><polygon fill="#181818" points="572.5,720.5332,576.5,730.5332,580.5,720.5332,576.5,724.5332" style="stroke:#181818;stroke-width:1.0;"/><line style="stroke:#181818;stroke-width:1.0;" x1="634.5" x2="656" y1="797.627" y2="797.627"/><polygon fill="#181818" points="652,723.0332,656,713.0332,660,723.0332,656,719.0332" style="stroke:#181818;stroke-width:1.0;"/><line style="stroke:#181818;stroke-width:1.0;" x1="656" x2="656" y1="635.9395" y2="797.627"/><line style="stroke:#181818;stroke-width:1.0;" x1="656" x2="150" y1="635.9395" y2="635.9395"/><polygon fill="#181818" points="160,631.9395,150,635.9395,160,639.9395,156,635.9395" style="stroke:#181818;stroke-width:1.0;"/><line style="stroke:#181818;stroke-width:1.0;" x1="576.5" x2="576.5" y1="809.627" y2="832.8369"/><line style="stroke:#181818;stroke-width:1.0;" x1="576.5" x2="138" y1="832.8369" y2="832.8369"/><line style="stroke:#181818;stroke-width:1.0;" x1="138" x2="138" y1="832.8369" y2="847.8369"/><polygon fill="#181818" points="134,837.8369,138,847.8369,142,837.8369,138,841.8369" style="stroke:#181818;stroke-width:1.0;"/><text fill="#000000" font-family="sans-serif" font-size="11" lengthAdjust="spacing" textLength="9" x="580.5" y="826.3369">Si</text><line style="stroke:#181818;stroke-width:1.0;" x1="138" x2="138" y1="882.9307" y2="887.9307"/><line style="stroke:#181818;stroke-width:1.0;" x1="138" x2="576.5" y1="887.9307" y2="887.9307"/><line style="stroke:#181818;stroke-width:1.0;" x1="576.5" x2="576.5" y1="887.9307" y2="902.9307"/><polygon fill="#181818" points="572.5,892.9307,576.5,902.9307,580.5,892.9307,576.5,896.9307" style="stroke:#181818;stroke-width:1.0;"/><line style="stroke:#181818;stroke-width:1.0;" x1="576.5" x2="576.5" y1="938.0244" y2="943.0244"/><line style="stroke:#181818;stroke-width:1.0;" x1="576.5" x2="1316.5" y1="943.0244" y2="943.0244"/><line style="stroke:#181818;stroke-width:1.0;" x1="1316.5" x2="1316.5" y1="943.0244" y2="958.0244"/><polygon fill="#181818" points="1312.5,948.0244,1316.5,958.0244,1320.5,948.0244,1316.5,952.0244" style="stroke:#181818;stroke-width:1.0;"/><line style="stroke:#181818;stroke-width:1.0;" x1="1530.5" x2="1530.5" y1="591.9395" y2="779.5449"/><line style="stroke:#181818;stroke-width:1.0;" x1="1530.5" x2="150" y1="591.9395" y2="591.9395"/><polygon fill="#181818" points="160,587.9395,150,591.9395,160,595.9395,156,591.9395" style="stroke:#181818;stroke-width:1.0;"/><line style="stroke:#181818;stroke-width:1.0;" x1="576.5" x2="576.5" y1="559.9395" y2="564.9395"/><line style="stroke:#181818;stroke-width:1.0;" x1="576.5" x2="138" y1="564.9395" y2="564.9395"/><line style="stroke:#181818;stroke-width:1.0;" x1="138" x2="138" y1="564.9395" y2="579.9395"/><polygon fill="#181818" points="134,569.9395,138,579.9395,142,569.9395,138,573.9395" style="stroke:#181818;stroke-width:1.0;"/><line style="stroke:#181818;stroke-width:1.0;" x1="1397" x2="1397" y1="1085.3711" y2="1089.3711"/><line style="stroke:#181818;stroke-width:1.0;" x1="1397" x2="1844" y1="1089.3711" y2="1089.3711"/><line style="stroke:#181818;stroke-width:1.0;" x1="1844" x2="1844" y1="1089.3711" y2="1112.918"/><polygon fill="#181818" points="1840,1102.918,1844,1112.918,1848,1102.918,1844,1106.918" style="stroke:#181818;stroke-width:1.0;"/><line style="stroke:#181818;stroke-width:1.0;" x1="1844" x2="1844" y1="1148.0117" y2="1161.5586"/><line style="stroke:#181818;stroke-width:1.0;" x1="1844" x2="1397" y1="1161.5586" y2="1161.5586"/><line style="stroke:#181818;stroke-width:1.0;" x1="1397" x2="1397" y1="1161.5586" y2="1175.5586"/><polygon fill="#181818" points="1393,1165.5586,1397,1175.5586,1401,1165.5586,1397,1169.5586" style="stroke:#181818;stroke-width:1.0;"/><line style="stroke:#181818;stroke-width:1.0;" x1="1316.5" x2="1316.5" y1="1181.5586" y2="1186.5586"/><line style="stroke:#181818;stroke-width:1.0;" x1="1316.5" x2="138" y1="1186.5586" y2="1186.5586"/><line style="stroke:#181818;stroke-width:1.0;" x1="138" x2="138" y1="1186.5586" y2="1201.5586"/><polygon fill="#181818" points="134,1191.5586,138,1201.5586,142,1191.5586,138,1195.5586" style="stroke:#181818;stroke-width:1.0;"/><line style="stroke:#181818;stroke-width:1.0;" x1="138" x2="138" y1="1236.6523" y2="1241.6523"/><line style="stroke:#181818;stroke-width:1.0;" x1="138" x2="576.5" y1="1241.6523" y2="1241.6523"/><line style="stroke:#181818;stroke-width:1.0;" x1="576.5" x2="576.5" y1="1241.6523" y2="1256.6523"/><polygon fill="#181818" points="572.5,1246.6523,576.5,1256.6523,580.5,1246.6523,576.5,1250.6523" style="stroke:#181818;stroke-width:1.0;"/><line style="stroke:#181818;stroke-width:1.0;" x1="1316.5" x2="1316.5" y1="1335.7461" y2="1348.2051"/><line style="stroke:#181818;stroke-width:1.0;" x1="1316.5" x2="576.5" y1="1348.2051" y2="1348.2051"/><line style="stroke:#181818;stroke-width:1.0;" x1="576.5" x2="576.5" y1="1348.2051" y2="1360.6641"/><polygon fill="#181818" points="572.5,1350.6641,576.5,1360.6641,580.5,1350.6641,576.5,1354.6641" style="stroke:#181818;stroke-width:1.0;"/><line style="stroke:#181818;stroke-width:1.0;" x1="576.5" x2="576.5" y1="1291.7461" y2="1296.7461"/><line style="stroke:#181818;stroke-width:1.0;" x1="576.5" x2="1316.5" y1="1296.7461" y2="1296.7461"/><line style="stroke:#181818;stroke-width:1.0;" x1="1316.5" x2="1316.5" y1="1296.7461" y2="1311.7461"/><polygon fill="#181818" points="1312.5,1301.7461,1316.5,1311.7461,1320.5,1301.7461,1316.5,1305.7461" style="stroke:#181818;stroke-width:1.0;"/><line style="stroke:#181818;stroke-width:1.0;" x1="1469.5" x2="576.5" y1="367.5645" y2="367.5645"/><line style="stroke:#181818;stroke-width:1.0;" x1="576.5" x2="576.5" y1="367.5645" y2="399.5645"/><polygon fill="#181818" points="572.5,389.5645,576.5,399.5645,580.5,389.5645,576.5,393.5645" style="stroke:#181818;stroke-width:1.0;"/><line style="stroke:#181818;stroke-width:1.0;" x1="1581.5" x2="1593.5" y1="367.5645" y2="367.5645"/><line style="stroke:#181818;stroke-width:1.0;" x1="1593.5" x2="1593.5" y1="367.5645" y2="385.5645"/><line style="stroke:#181818;stroke-width:1.0;" x1="1593.5" x2="994.5" y1="385.5645" y2="385.5645"/><line style="stroke:#181818;stroke-width:1.0;" x1="994.5" x2="994.5" y1="385.5645" y2="399.5645"/><polygon fill="#181818" points="990.5,389.5645,994.5,399.5645,998.5,389.5645,994.5,393.5645" style="stroke:#181818;stroke-width:1.0;"/><line style="stroke:#181818;stroke-width:1.0;" x1="1649" x2="1649" y1="1542.3984" y2="1559.8984"/><line style="stroke:#181818;stroke-width:1.0;" x1="1649" x2="2042" y1="1559.8984" y2="1559.8984"/><line style="stroke:#181818;stroke-width:1.0;" x1="2042" x2="2042" y1="1559.8984" y2="1577.3984"/><polygon fill="#181818" points="2038,1567.3984,2042,1577.3984,2046,1567.3984,2042,1571.3984" style="stroke:#181818;stroke-width:1.0;"/><line style="stroke:#181818;stroke-width:1.0;" x1="2042" x2="2042" y1="1612.4922" y2="1618.4922"/><line style="stroke:#181818;stroke-width:1.0;" x1="2042" x2="1649" y1="1618.4922" y2="1618.4922"/><line style="stroke:#181818;stroke-width:1.0;" x1="1649" x2="1649" y1="1618.4922" y2="1632.4922"/><polygon fill="#181818" points="1645,1622.4922,1649,1632.4922,1653,1622.4922,1649,1626.4922" style="stroke:#181818;stroke-width:1.0;"/><line style="stroke:#181818;stroke-width:1.0;" x1="1525.5" x2="1525.5" y1="1638.4922" y2="1643.4922"/><line style="stroke:#181818;stroke-width:1.0;" x1="1525.5" x2="785.5" y1="1643.4922" y2="1643.4922"/><line style="stroke:#181818;stroke-width:1.0;" x1="785.5" x2="785.5" y1="1643.4922" y2="1658.4922"/><polygon fill="#181818" points="781.5,1648.4922,785.5,1658.4922,789.5,1648.4922,785.5,1652.4922" style="stroke:#181818;stroke-width:1.0;"/><text fill="#000000" font-family="sans-serif" font-size="18" lengthAdjust="spacing" textLength="53" x="206.25" y="31.1406">Utente</text><text fill="#000000" font-family="sans-serif" font-size="18" lengthAdjust="spacing" textLength="64" x="744.75" y="31.1406">Sistema</text><text fill="#000000" font-family="sans-serif" font-size="18" lengthAdjust="spacing" textLength="146" x="1340" y="31.1406">Supabase Service</text><text fill="#000000" font-family="sans-serif" font-size="18" lengthAdjust="spacing" textLength="77" x="1882.5" y="31.1406">Database</text><!--MD5=[52023377cf7f0a68282d28bb673d0b38]
@startuml ActivityDiagram

|Utente|
|Sistema|
|Supabase Service|
|Database|

|Utente| 
start
:Utente clicca sul tasto d'accesso;

|Sistema|
:Mostra Pagina Accesso;

|Utente|
:Inserisce Credenziali;

|Sistema|
:Tentativo di Accesso;

|Supabase Service|
:Richesta Accesso con credenziali;

if (Account esistente) then (No) 
  |Sistema|
  :Mostra messaggio di errato inserimento;
  
  |Utente|
  :Preme il pulsante:\n'Non hai ancora un account? Registrati';

  |Sistema|
  :Mostra Pagina Registrazione;

  repeat
  repeat
  |Utente|
  :Inserisce credenziali;
  
  |Sistema|
  :Controllo Credenziali;
  repeat while (Credenziali Valide?) is (No)
  ->Si;
  
  |Utente|
  :Preme Pulsante 'Registrati';
  
  |Sistema|
  :Richesta di Registrazione;

  |Supabase Service|
  :Registrazione con email e password;
  
  backward :Mostra messaggio errore;
  
  repeat while (Email è gia in uso?) is (Si)
  ->No;

  |Supabase Service|
  fork
  :Invia email di verifica\nall'indirizzo fornito;
  
  fork again
  |Database|
  :Aggiunge account con stato di 'waiting';
  |Supabase Service|
  end fork 
  
  |Utente|
  :Apre link di verifica;
  
  |Sistema|
  :Richiesta di verifica;

  |Supabase Service|
  if (Richiesta Valida) then (Sì)
    
  else (No)
    |Sistema|
    :Mostra messaggio di errore;
    stop
  endif
  

else(Si)
  |Sistema|
  :Reindirizza alla pagina precedente;
  stop
endif

|Supabase Service|
fork
:Aggiornamento dati sessione utente;

fork again
:Account Verificato;
|Database|
:Rimuove Stato 'waiting';

|Supabase Service|
end fork


|Sistema|
:Reindirizza alla pagina precedente;
stop
@enduml

PlantUML version 1.2022.7(Mon Aug 22 19:01:30 CEST 2022)
(GPL source distribution)
Java Runtime: Java(TM) SE Runtime Environment
JVM: Java HotSpot(TM) 64-Bit Server VM
Default Encoding: UTF-8
Language: it
Country: IT
--></g></svg>