<?xml version="1.0" encoding="UTF-8" standalone="no"?><svg xmlns="http://www.w3.org/2000/svg" xmlns:xlink="http://www.w3.org/1999/xlink" contentStyleType="text/css" height="1165px" preserveAspectRatio="none" style="width:1665px;height:1165px;background:#FFFFFF;" version="1.1" viewBox="0 0 1665 1165" width="1665px" zoomAndPan="magnify"><defs/><g><!--MD5=[975d7fda8cf98ff1a26ca528bf10cecf]
cluster App--><g id="cluster_App"><path d="M8.5,6 L36.5,6 A3.75,3.75 0 0 1 39,8.5 L46,29.6094 L1655.5,29.6094 A2.5,2.5 0 0 1 1658,32.1094 L1658,1155.5 A2.5,2.5 0 0 1 1655.5,1158 L8.5,1158 A2.5,2.5 0 0 1 6,1155.5 L6,8.5 A2.5,2.5 0 0 1 8.5,6 " fill="none" style="stroke:#000000;stroke-width:1.5;"/><line style="stroke:#000000;stroke-width:1.5;" x1="6" x2="46" y1="29.6094" y2="29.6094"/><text fill="#000000" font-family="sans-serif" font-size="14" font-weight="bold" lengthAdjust="spacing" textLength="27" x="10" y="22.5332">App</text></g><!--MD5=[c60679dfbe80eab0cae5e3add7b10464]
cluster src--><g id="cluster_src"><path d="M32.5,50 L55.5,50 A3.75,3.75 0 0 1 58,52.5 L65,73.6094 L1631.5,73.6094 A2.5,2.5 0 0 1 1634,76.1094 L1634,1131.5 A2.5,2.5 0 0 1 1631.5,1134 L32.5,1134 A2.5,2.5 0 0 1 30,1131.5 L30,52.5 A2.5,2.5 0 0 1 32.5,50 " fill="none" style="stroke:#000000;stroke-width:1.5;"/><line style="stroke:#000000;stroke-width:1.5;" x1="30" x2="65" y1="73.6094" y2="73.6094"/><text fill="#000000" font-family="sans-serif" font-size="14" font-weight="bold" lengthAdjust="spacing" textLength="22" x="34" y="66.5332">src</text></g><!--MD5=[360c1f17fd567815a93c7b66b8857514]
cluster lib--><g id="cluster_lib"><path d="M142.5,102 L160.5,102 A3.75,3.75 0 0 1 163,104.5 L170,125.6094 L1599.5,125.6094 A2.5,2.5 0 0 1 1602,128.1094 L1602,683.5 A2.5,2.5 0 0 1 1599.5,686 L142.5,686 A2.5,2.5 0 0 1 140,683.5 L140,104.5 A2.5,2.5 0 0 1 142.5,102 " fill="none" style="stroke:#000000;stroke-width:1.5;"/><line style="stroke:#000000;stroke-width:1.5;" x1="140" x2="170" y1="125.6094" y2="125.6094"/><text fill="#000000" font-family="sans-serif" font-size="14" font-weight="bold" lengthAdjust="spacing" textLength="17" x="144" y="118.5332">lib</text></g><!--MD5=[28be79422777784d166cc79aa5c6aecb]
cluster assets_lib--><g id="cluster_assets_lib"><path d="M1351.5,198 L1398.5,198 A3.75,3.75 0 0 1 1401,200.5 L1408,221.6094 L1559.5,221.6094 A2.5,2.5 0 0 1 1562,224.1094 L1562,303.5 A2.5,2.5 0 0 1 1559.5,306 L1351.5,306 A2.5,2.5 0 0 1 1349,303.5 L1349,200.5 A2.5,2.5 0 0 1 1351.5,198 " fill="none" style="stroke:#000000;stroke-width:1.5;"/><line style="stroke:#000000;stroke-width:1.5;" x1="1349" x2="1408" y1="221.6094" y2="221.6094"/><text fill="#000000" font-family="sans-serif" font-size="14" font-weight="bold" lengthAdjust="spacing" textLength="46" x="1353" y="214.5332">assets</text></g><!--MD5=[b613f7556ec1759b08cb9567dbcb0f02]
cluster controller_lib--><g id="cluster_controller_lib"><path d="M987.5,198 L1057.5,198 A3.75,3.75 0 0 1 1060,200.5 L1067,221.6094 L1322.5,221.6094 A2.5,2.5 0 0 1 1325,224.1094 L1325,419.5 A2.5,2.5 0 0 1 1322.5,422 L987.5,422 A2.5,2.5 0 0 1 985,419.5 L985,200.5 A2.5,2.5 0 0 1 987.5,198 " fill="none" style="stroke:#000000;stroke-width:1.5;"/><line style="stroke:#000000;stroke-width:1.5;" x1="985" x2="1067" y1="221.6094" y2="221.6094"/><text fill="#000000" font-family="sans-serif" font-size="14" font-weight="bold" lengthAdjust="spacing" textLength="69" x="989" y="214.5332">controller</text></g><!--MD5=[47c3d1e631601a6706bde544eceb18d1]
cluster components_lib--><g id="cluster_components_lib"><path d="M252.5,154 L340.5,154 A3.75,3.75 0 0 1 343,156.5 L350,177.6094 L958.5,177.6094 A2.5,2.5 0 0 1 961,180.1094 L961,651.5 A2.5,2.5 0 0 1 958.5,654 L252.5,654 A2.5,2.5 0 0 1 250,651.5 L250,156.5 A2.5,2.5 0 0 1 252.5,154 " fill="none" style="stroke:#000000;stroke-width:1.5;"/><line style="stroke:#000000;stroke-width:1.5;" x1="250" x2="350" y1="177.6094" y2="177.6094"/><text fill="#000000" font-family="sans-serif" font-size="14" font-weight="bold" lengthAdjust="spacing" textLength="87" x="254" y="170.5332">components</text></g><!--MD5=[0ed88f431946f49064cf51ce78d1803a]
cluster home_page_component--><g id="cluster_home_page_component"><path d="M676.5,198 L756.5,198 A3.75,3.75 0 0 1 759,200.5 L766,221.6094 L934.5,221.6094 A2.5,2.5 0 0 1 937,224.1094 L937,419.5 A2.5,2.5 0 0 1 934.5,422 L676.5,422 A2.5,2.5 0 0 1 674,419.5 L674,200.5 A2.5,2.5 0 0 1 676.5,198 " fill="none" style="stroke:#000000;stroke-width:1.5;"/><line style="stroke:#000000;stroke-width:1.5;" x1="674" x2="766" y1="221.6094" y2="221.6094"/><text fill="#000000" font-family="sans-serif" font-size="14" font-weight="bold" lengthAdjust="spacing" textLength="79" x="678" y="214.5332">home-page</text></g><!--MD5=[aee47e4adc368b23a2c75b05fcb7ca1e]
cluster routes--><g id="cluster_routes"><path d="M407.5,726 L454.5,726 A3.75,3.75 0 0 1 457,728.5 L464,749.6094 L1599.5,749.6094 A2.5,2.5 0 0 1 1602,752.1094 L1602,1099.5 A2.5,2.5 0 0 1 1599.5,1102 L407.5,1102 A2.5,2.5 0 0 1 405,1099.5 L405,728.5 A2.5,2.5 0 0 1 407.5,726 " fill="none" style="stroke:#000000;stroke-width:1.5;"/><line style="stroke:#000000;stroke-width:1.5;" x1="405" x2="464" y1="749.6094" y2="749.6094"/><text fill="#000000" font-family="sans-serif" font-size="14" font-weight="bold" lengthAdjust="spacing" textLength="46" x="409" y="742.5332">routes</text></g><!--MD5=[f2bbd010a94b6e7aa44f6bfdc1966c20]
cluster auth_route--><g id="cluster_auth_route"><path d="M1142.5,778 L1184.5,778 A3.75,3.75 0 0 1 1187,780.5 L1194,801.6094 L1567.5,801.6094 A2.5,2.5 0 0 1 1570,804.1094 L1570,1043.5 A2.5,2.5 0 0 1 1567.5,1046 L1142.5,1046 A2.5,2.5 0 0 1 1140,1043.5 L1140,780.5 A2.5,2.5 0 0 1 1142.5,778 " fill="none" style="stroke:#000000;stroke-width:1.5;"/><line style="stroke:#000000;stroke-width:1.5;" x1="1140" x2="1194" y1="801.6094" y2="801.6094"/><text fill="#000000" font-family="sans-serif" font-size="14" font-weight="bold" lengthAdjust="spacing" textLength="41" x="1144" y="794.5332">(auth)</text></g><!--MD5=[40519cbd1580782af09bc71050f20cdb]
cluster auth_auth--><g id="cluster_auth_auth"><path d="M1434.5,822 L1466.5,822 A3.75,3.75 0 0 1 1469,824.5 L1476,845.6094 L1543.5,845.6094 A2.5,2.5 0 0 1 1546,848.1094 L1546,927.5 A2.5,2.5 0 0 1 1543.5,930 L1434.5,930 A2.5,2.5 0 0 1 1432,927.5 L1432,824.5 A2.5,2.5 0 0 1 1434.5,822 " fill="none" style="stroke:#000000;stroke-width:1.5;"/><line style="stroke:#000000;stroke-width:1.5;" x1="1432" x2="1476" y1="845.6094" y2="845.6094"/><text fill="#000000" font-family="sans-serif" font-size="14" font-weight="bold" lengthAdjust="spacing" textLength="31" x="1436" y="838.5332">auth</text></g><!--MD5=[d148c11755c0667e5ddfc79401706ff0]
cluster private_route--><g id="cluster_private_route"><path d="M825.5,778 L886.5,778 A3.75,3.75 0 0 1 889,780.5 L896,801.6094 L1113.5,801.6094 A2.5,2.5 0 0 1 1116,804.1094 L1116,1067.5 A2.5,2.5 0 0 1 1113.5,1070 L825.5,1070 A2.5,2.5 0 0 1 823,1067.5 L823,780.5 A2.5,2.5 0 0 1 825.5,778 " fill="none" style="stroke:#000000;stroke-width:1.5;"/><line style="stroke:#000000;stroke-width:1.5;" x1="823" x2="896" y1="801.6094" y2="801.6094"/><text fill="#000000" font-family="sans-serif" font-size="14" font-weight="bold" lengthAdjust="spacing" textLength="60" x="827" y="794.5332">(private)</text></g><!--MD5=[717db1ad1a1e2f7367cfdc4aa2131f7a]
cluster account_private--><g id="cluster_account_private"><path d="M849.5,822 L906.5,822 A3.75,3.75 0 0 1 909,824.5 L916,845.6094 L1089.5,845.6094 A2.5,2.5 0 0 1 1092,848.1094 L1092,1043.5 A2.5,2.5 0 0 1 1089.5,1046 L849.5,1046 A2.5,2.5 0 0 1 847,1043.5 L847,824.5 A2.5,2.5 0 0 1 849.5,822 " fill="none" style="stroke:#000000;stroke-width:1.5;"/><line style="stroke:#000000;stroke-width:1.5;" x1="847" x2="916" y1="845.6094" y2="845.6094"/><text fill="#000000" font-family="sans-serif" font-size="14" font-weight="bold" lengthAdjust="spacing" textLength="56" x="851" y="838.5332">account</text></g><!--MD5=[65349ba7980342752a812e6f8300cb1f]
cluster corsi_route--><g id="cluster_corsi_route"><path d="M447.5,822 L483.5,822 A3.75,3.75 0 0 1 486,824.5 L493,845.6094 L544.5,845.6094 A2.5,2.5 0 0 1 547,848.1094 L547,927.5 A2.5,2.5 0 0 1 544.5,930 L447.5,930 A2.5,2.5 0 0 1 445,927.5 L445,824.5 A2.5,2.5 0 0 1 447.5,822 " fill="none" style="stroke:#000000;stroke-width:1.5;"/><line style="stroke:#000000;stroke-width:1.5;" x1="445" x2="493" y1="845.6094" y2="845.6094"/><text fill="#000000" font-family="sans-serif" font-size="14" font-weight="bold" lengthAdjust="spacing" textLength="35" x="449" y="838.5332">corsi</text></g><!--MD5=[75553a018a2f45a3df724ce6c38573a7]
cluster gruppi_route--><g id="cluster_gruppi_route"><path d="M699.5,822 L746.5,822 A3.75,3.75 0 0 1 749,824.5 L756,845.6094 L796.5,845.6094 A2.5,2.5 0 0 1 799,848.1094 L799,927.5 A2.5,2.5 0 0 1 796.5,930 L699.5,930 A2.5,2.5 0 0 1 697,927.5 L697,824.5 A2.5,2.5 0 0 1 699.5,822 " fill="none" style="stroke:#000000;stroke-width:1.5;"/><line style="stroke:#000000;stroke-width:1.5;" x1="697" x2="756" y1="845.6094" y2="845.6094"/><text fill="#000000" font-family="sans-serif" font-size="14" font-weight="bold" lengthAdjust="spacing" textLength="46" x="701" y="838.5332">gruppi</text></g><!--MD5=[d376dd0adb659ede13ee932284f4b02b]
cluster professori_route--><g id="cluster_professori_route"><path d="M573.5,822 L647.5,822 A3.75,3.75 0 0 1 650,824.5 L657,845.6094 L670.5,845.6094 A2.5,2.5 0 0 1 673,848.1094 L673,927.5 A2.5,2.5 0 0 1 670.5,930 L573.5,930 A2.5,2.5 0 0 1 571,927.5 L571,824.5 A2.5,2.5 0 0 1 573.5,822 " fill="none" style="stroke:#000000;stroke-width:1.5;"/><line style="stroke:#000000;stroke-width:1.5;" x1="571" x2="657" y1="845.6094" y2="845.6094"/><text fill="#000000" font-family="sans-serif" font-size="14" font-weight="bold" lengthAdjust="spacing" textLength="73" x="575" y="838.5332">professori</text></g><!--MD5=[574a74b05ee530937e95a7ffbe34a967]
entity style--><g id="elem_style"><path d="M48.5,234 L89.5,234 A3.75,3.75 0 0 1 92,236.5 L99,255 L113.5,255 A2.5,2.5 0 0 1 116,257.5 L116,287.1094 A2.5,2.5 0 0 1 113.5,289.6094 L48.5,289.6094 A2.5,2.5 0 0 1 46,287.1094 L46,236.5 A2.5,2.5 0 0 1 48.5,234 " fill="#F1F1F1" style="stroke:#181818;stroke-width:0.5;"/><line style="stroke:#181818;stroke-width:0.5;" x1="46" x2="99" y1="255" y2="255"/><text fill="#000000" font-family="sans-serif" font-size="14" lengthAdjust="spacing" textLength="29" x="56" y="276.5332">style</text></g><!--MD5=[fae8802b02679c52fd299ae97cc9d17b]
entity data_lib--><g id="elem_data_lib"><path d="M166.5,234 L207.5,234 A3.75,3.75 0 0 1 210,236.5 L217,255 L231.5,255 A2.5,2.5 0 0 1 234,257.5 L234,287.1094 A2.5,2.5 0 0 1 231.5,289.6094 L166.5,289.6094 A2.5,2.5 0 0 1 164,287.1094 L164,236.5 A2.5,2.5 0 0 1 166.5,234 " fill="#F1F1F1" style="stroke:#181818;stroke-width:0.5;"/><line style="stroke:#181818;stroke-width:0.5;" x1="164" x2="217" y1="255" y2="255"/><text fill="#000000" font-family="sans-serif" font-size="14" lengthAdjust="spacing" textLength="28" x="174" y="276.5332">data</text></g><!--MD5=[4fd97120005038da2e45258dde86bc2e]
entity icons_asset--><g id="elem_icons_asset"><path d="M1478.5,234 L1519.5,234 A3.75,3.75 0 0 1 1522,236.5 L1529,255 L1543.5,255 A2.5,2.5 0 0 1 1546,257.5 L1546,287.1094 A2.5,2.5 0 0 1 1543.5,289.6094 L1478.5,289.6094 A2.5,2.5 0 0 1 1476,287.1094 L1476,236.5 A2.5,2.5 0 0 1 1478.5,234 " fill="#F1F1F1" style="stroke:#181818;stroke-width:0.5;"/><line style="stroke:#181818;stroke-width:0.5;" x1="1476" x2="1529" y1="255" y2="255"/><text fill="#000000" font-family="sans-serif" font-size="14" lengthAdjust="spacing" textLength="33" x="1486" y="276.5332">icons</text></g><!--MD5=[b83e327094e00e2427df852e96772c4b]
entity images_asset--><g id="elem_images_asset"><path d="M1368,234 L1409,234 A3.75,3.75 0 0 1 1411.5,236.5 L1418.5,255 L1438,255 A2.5,2.5 0 0 1 1440.5,257.5 L1440.5,287.1094 A2.5,2.5 0 0 1 1438,289.6094 L1368,289.6094 A2.5,2.5 0 0 1 1365.5,287.1094 L1365.5,236.5 A2.5,2.5 0 0 1 1368,234 " fill="#F1F1F1" style="stroke:#181818;stroke-width:0.5;"/><line style="stroke:#181818;stroke-width:0.5;" x1="1365.5" x2="1418.5" y1="255" y2="255"/><text fill="#000000" font-family="sans-serif" font-size="14" lengthAdjust="spacing" textLength="45" x="1375.5" y="276.5332">images</text></g><!--MD5=[0fb506b45c97aea4142d5313ef575ee5]
entity auth_controller--><g id="elem_auth_controller"><path d="M1015.5,234 L1056.5,234 A3.75,3.75 0 0 1 1059,236.5 L1066,255 L1080.5,255 A2.5,2.5 0 0 1 1083,257.5 L1083,287.1094 A2.5,2.5 0 0 1 1080.5,289.6094 L1015.5,289.6094 A2.5,2.5 0 0 1 1013,287.1094 L1013,236.5 A2.5,2.5 0 0 1 1015.5,234 " fill="#F1F1F1" style="stroke:#181818;stroke-width:0.5;"/><line style="stroke:#181818;stroke-width:0.5;" x1="1013" x2="1066" y1="255" y2="255"/><text fill="#000000" font-family="sans-serif" font-size="14" lengthAdjust="spacing" textLength="28" x="1023" y="276.5332">auth</text></g><!--MD5=[1faf83e12e419053061bed048458b815]
entity corsi_controller--><g id="elem_corsi_controller"><path d="M1120.5,234 L1161.5,234 A3.75,3.75 0 0 1 1164,236.5 L1171,255 L1185.5,255 A2.5,2.5 0 0 1 1188,257.5 L1188,287.1094 A2.5,2.5 0 0 1 1185.5,289.6094 L1120.5,289.6094 A2.5,2.5 0 0 1 1118,287.1094 L1118,236.5 A2.5,2.5 0 0 1 1120.5,234 " fill="#F1F1F1" style="stroke:#181818;stroke-width:0.5;"/><line style="stroke:#181818;stroke-width:0.5;" x1="1118" x2="1171" y1="255" y2="255"/><text fill="#000000" font-family="sans-serif" font-size="14" lengthAdjust="spacing" textLength="30" x="1128" y="276.5332">corsi</text></g><!--MD5=[4ec202ca10a669d5c2bd54790890f311]
entity gruppi_controller--><g id="elem_gruppi_controller"><path d="M1225.5,234 L1266.5,234 A3.75,3.75 0 0 1 1269,236.5 L1276,255 L1290.5,255 A2.5,2.5 0 0 1 1293,257.5 L1293,287.1094 A2.5,2.5 0 0 1 1290.5,289.6094 L1225.5,289.6094 A2.5,2.5 0 0 1 1223,287.1094 L1223,236.5 A2.5,2.5 0 0 1 1225.5,234 " fill="#F1F1F1" style="stroke:#181818;stroke-width:0.5;"/><line style="stroke:#181818;stroke-width:0.5;" x1="1223" x2="1276" y1="255" y2="255"/><text fill="#000000" font-family="sans-serif" font-size="14" lengthAdjust="spacing" textLength="40" x="1233" y="276.5332">gruppi</text></g><!--MD5=[641ffe599f3f0fa11c56a2a92f32104d]
entity professori_controller--><g id="elem_professori_controller"><path d="M1004,350 L1045,350 A3.75,3.75 0 0 1 1047.5,352.5 L1054.5,371 L1092,371 A2.5,2.5 0 0 1 1094.5,373.5 L1094.5,403.1094 A2.5,2.5 0 0 1 1092,405.6094 L1004,405.6094 A2.5,2.5 0 0 1 1001.5,403.1094 L1001.5,352.5 A2.5,2.5 0 0 1 1004,350 " fill="#F1F1F1" style="stroke:#181818;stroke-width:0.5;"/><line style="stroke:#181818;stroke-width:0.5;" x1="1001.5" x2="1054.5" y1="371" y2="371"/><text fill="#000000" font-family="sans-serif" font-size="14" lengthAdjust="spacing" textLength="63" x="1011.5" y="392.5332">professori</text></g><!--MD5=[7b26a677d029e25952d9668120c3986d]
entity profilo_controller--><g id="elem_profilo_controller"><path d="M1132.5,350 L1173.5,350 A3.75,3.75 0 0 1 1176,352.5 L1183,371 L1197.5,371 A2.5,2.5 0 0 1 1200,373.5 L1200,403.1094 A2.5,2.5 0 0 1 1197.5,405.6094 L1132.5,405.6094 A2.5,2.5 0 0 1 1130,403.1094 L1130,352.5 A2.5,2.5 0 0 1 1132.5,350 " fill="#F1F1F1" style="stroke:#181818;stroke-width:0.5;"/><line style="stroke:#181818;stroke-width:0.5;" x1="1130" x2="1183" y1="371" y2="371"/><text fill="#000000" font-family="sans-serif" font-size="14" lengthAdjust="spacing" textLength="39" x="1140" y="392.5332">profilo</text></g><!--MD5=[82683732a488050d4575c05c9270f513]
entity utilities_controller--><g id="elem_utilities_controller"><path d="M1238,350 L1279,350 A3.75,3.75 0 0 1 1281.5,352.5 L1288.5,371 L1306,371 A2.5,2.5 0 0 1 1308.5,373.5 L1308.5,403.1094 A2.5,2.5 0 0 1 1306,405.6094 L1238,405.6094 A2.5,2.5 0 0 1 1235.5,403.1094 L1235.5,352.5 A2.5,2.5 0 0 1 1238,350 " fill="#F1F1F1" style="stroke:#181818;stroke-width:0.5;"/><line style="stroke:#181818;stroke-width:0.5;" x1="1235.5" x2="1288.5" y1="371" y2="371"/><text fill="#000000" font-family="sans-serif" font-size="14" lengthAdjust="spacing" textLength="43" x="1245.5" y="392.5332">utilities</text></g><!--MD5=[1e4a46f093beeb2aeb6bcd6c60234dd4]
entity auth_component--><g id="elem_auth_component"><path d="M271.5,234 L312.5,234 A3.75,3.75 0 0 1 315,236.5 L322,255 L336.5,255 A2.5,2.5 0 0 1 339,257.5 L339,287.1094 A2.5,2.5 0 0 1 336.5,289.6094 L271.5,289.6094 A2.5,2.5 0 0 1 269,287.1094 L269,236.5 A2.5,2.5 0 0 1 271.5,234 " fill="#F1F1F1" style="stroke:#181818;stroke-width:0.5;"/><line style="stroke:#181818;stroke-width:0.5;" x1="269" x2="322" y1="255" y2="255"/><text fill="#000000" font-family="sans-serif" font-size="14" lengthAdjust="spacing" textLength="28" x="279" y="276.5332">auth</text></g><!--MD5=[302e49fe2fd5192a6e9abf96ec7d74a6]
entity corsi_component--><g id="elem_corsi_component"><path d="M376.5,234 L417.5,234 A3.75,3.75 0 0 1 420,236.5 L427,255 L441.5,255 A2.5,2.5 0 0 1 444,257.5 L444,287.1094 A2.5,2.5 0 0 1 441.5,289.6094 L376.5,289.6094 A2.5,2.5 0 0 1 374,287.1094 L374,236.5 A2.5,2.5 0 0 1 376.5,234 " fill="#F1F1F1" style="stroke:#181818;stroke-width:0.5;"/><line style="stroke:#181818;stroke-width:0.5;" x1="374" x2="427" y1="255" y2="255"/><text fill="#000000" font-family="sans-serif" font-size="14" lengthAdjust="spacing" textLength="30" x="384" y="276.5332">corsi</text></g><!--MD5=[4da98aa9f25c295f7d7d2b1f3831df48]
entity footer_component--><g id="elem_footer_component"><path d="M481.5,234 L522.5,234 A3.75,3.75 0 0 1 525,236.5 L532,255 L546.5,255 A2.5,2.5 0 0 1 549,257.5 L549,287.1094 A2.5,2.5 0 0 1 546.5,289.6094 L481.5,289.6094 A2.5,2.5 0 0 1 479,287.1094 L479,236.5 A2.5,2.5 0 0 1 481.5,234 " fill="#F1F1F1" style="stroke:#181818;stroke-width:0.5;"/><line style="stroke:#181818;stroke-width:0.5;" x1="479" x2="532" y1="255" y2="255"/><text fill="#000000" font-family="sans-serif" font-size="14" lengthAdjust="spacing" textLength="37" x="489" y="276.5332">footer</text></g><!--MD5=[f3979b1019df364527852ef45e415d08]
entity form_component--><g id="elem_form_component"><path d="M586.5,234 L627.5,234 A3.75,3.75 0 0 1 630,236.5 L637,255 L651.5,255 A2.5,2.5 0 0 1 654,257.5 L654,287.1094 A2.5,2.5 0 0 1 651.5,289.6094 L586.5,289.6094 A2.5,2.5 0 0 1 584,287.1094 L584,236.5 A2.5,2.5 0 0 1 586.5,234 " fill="#F1F1F1" style="stroke:#181818;stroke-width:0.5;"/><line style="stroke:#181818;stroke-width:0.5;" x1="584" x2="637" y1="255" y2="255"/><text fill="#000000" font-family="sans-serif" font-size="14" lengthAdjust="spacing" textLength="28" x="594" y="276.5332">form</text></g><!--MD5=[238c1b0f0015ce30905537ad353dfbb6]
entity gruppi_component--><g id="elem_gruppi_component"><path d="M268.5,350 L309.5,350 A3.75,3.75 0 0 1 312,352.5 L319,371 L333.5,371 A2.5,2.5 0 0 1 336,373.5 L336,403.1094 A2.5,2.5 0 0 1 333.5,405.6094 L268.5,405.6094 A2.5,2.5 0 0 1 266,403.1094 L266,352.5 A2.5,2.5 0 0 1 268.5,350 " fill="#F1F1F1" style="stroke:#181818;stroke-width:0.5;"/><line style="stroke:#181818;stroke-width:0.5;" x1="266" x2="319" y1="371" y2="371"/><text fill="#000000" font-family="sans-serif" font-size="14" lengthAdjust="spacing" textLength="40" x="276" y="392.5332">gruppi</text></g><!--MD5=[1000ff6d3aeaf73e19612ac23b28052d]
entity layout_component--><g id="elem_layout_component"><path d="M373.5,350 L414.5,350 A3.75,3.75 0 0 1 417,352.5 L424,371 L438.5,371 A2.5,2.5 0 0 1 441,373.5 L441,403.1094 A2.5,2.5 0 0 1 438.5,405.6094 L373.5,405.6094 A2.5,2.5 0 0 1 371,403.1094 L371,352.5 A2.5,2.5 0 0 1 373.5,350 " fill="#F1F1F1" style="stroke:#181818;stroke-width:0.5;"/><line style="stroke:#181818;stroke-width:0.5;" x1="371" x2="424" y1="371" y2="371"/><text fill="#000000" font-family="sans-serif" font-size="14" lengthAdjust="spacing" textLength="38" x="381" y="392.5332">layout</text></g><!--MD5=[1230d01f0671b448b923674896099d4d]
entity modal_component--><g id="elem_modal_component"><path d="M478.5,350 L519.5,350 A3.75,3.75 0 0 1 522,352.5 L529,371 L543.5,371 A2.5,2.5 0 0 1 546,373.5 L546,403.1094 A2.5,2.5 0 0 1 543.5,405.6094 L478.5,405.6094 A2.5,2.5 0 0 1 476,403.1094 L476,352.5 A2.5,2.5 0 0 1 478.5,350 " fill="#F1F1F1" style="stroke:#181818;stroke-width:0.5;"/><line style="stroke:#181818;stroke-width:0.5;" x1="476" x2="529" y1="371" y2="371"/><text fill="#000000" font-family="sans-serif" font-size="14" lengthAdjust="spacing" textLength="38" x="486" y="392.5332">modal</text></g><!--MD5=[b2e74f1677c7133425a3300f13428d96]
entity navbar_component--><g id="elem_navbar_component"><path d="M583.5,350 L624.5,350 A3.75,3.75 0 0 1 627,352.5 L634,371 L652.5,371 A2.5,2.5 0 0 1 655,373.5 L655,403.1094 A2.5,2.5 0 0 1 652.5,405.6094 L583.5,405.6094 A2.5,2.5 0 0 1 581,403.1094 L581,352.5 A2.5,2.5 0 0 1 583.5,350 " fill="#F1F1F1" style="stroke:#181818;stroke-width:0.5;"/><line style="stroke:#181818;stroke-width:0.5;" x1="581" x2="634" y1="371" y2="371"/><text fill="#000000" font-family="sans-serif" font-size="14" lengthAdjust="spacing" textLength="44" x="591" y="392.5332">navbar</text></g><!--MD5=[f09668e242f02664c94a31f7c26f1c15]
entity professori_component--><g id="elem_professori_component"><path d="M269,466 L310,466 A3.75,3.75 0 0 1 312.5,468.5 L319.5,487 L357,487 A2.5,2.5 0 0 1 359.5,489.5 L359.5,519.1094 A2.5,2.5 0 0 1 357,521.6094 L269,521.6094 A2.5,2.5 0 0 1 266.5,519.1094 L266.5,468.5 A2.5,2.5 0 0 1 269,466 " fill="#F1F1F1" style="stroke:#181818;stroke-width:0.5;"/><line style="stroke:#181818;stroke-width:0.5;" x1="266.5" x2="319.5" y1="487" y2="487"/><text fill="#000000" font-family="sans-serif" font-size="14" lengthAdjust="spacing" textLength="63" x="276.5" y="508.5332">professori</text></g><!--MD5=[95ce3cf52223b337b4c94369a3a9dec5]
entity profilo_component--><g id="elem_profilo_component"><path d="M397.5,466 L438.5,466 A3.75,3.75 0 0 1 441,468.5 L448,487 L462.5,487 A2.5,2.5 0 0 1 465,489.5 L465,519.1094 A2.5,2.5 0 0 1 462.5,521.6094 L397.5,521.6094 A2.5,2.5 0 0 1 395,519.1094 L395,468.5 A2.5,2.5 0 0 1 397.5,466 " fill="#F1F1F1" style="stroke:#181818;stroke-width:0.5;"/><line style="stroke:#181818;stroke-width:0.5;" x1="395" x2="448" y1="487" y2="487"/><text fill="#000000" font-family="sans-serif" font-size="14" lengthAdjust="spacing" textLength="39" x="405" y="508.5332">profilo</text></g><!--MD5=[205d26413327384d60346c87259137eb]
entity reviews_component--><g id="elem_reviews_component"><path d="M503,466 L544,466 A3.75,3.75 0 0 1 546.5,468.5 L553.5,487 L575,487 A2.5,2.5 0 0 1 577.5,489.5 L577.5,519.1094 A2.5,2.5 0 0 1 575,521.6094 L503,521.6094 A2.5,2.5 0 0 1 500.5,519.1094 L500.5,468.5 A2.5,2.5 0 0 1 503,466 " fill="#F1F1F1" style="stroke:#181818;stroke-width:0.5;"/><line style="stroke:#181818;stroke-width:0.5;" x1="500.5" x2="553.5" y1="487" y2="487"/><text fill="#000000" font-family="sans-serif" font-size="14" lengthAdjust="spacing" textLength="47" x="510.5" y="508.5332">reviews</text></g><!--MD5=[e38374128a8de9830c8d7e5fc3db9db8]
entity tabs_component--><g id="elem_tabs_component"><path d="M615.5,466 L656.5,466 A3.75,3.75 0 0 1 659,468.5 L666,487 L680.5,487 A2.5,2.5 0 0 1 683,489.5 L683,519.1094 A2.5,2.5 0 0 1 680.5,521.6094 L615.5,521.6094 A2.5,2.5 0 0 1 613,519.1094 L613,468.5 A2.5,2.5 0 0 1 615.5,466 " fill="#F1F1F1" style="stroke:#181818;stroke-width:0.5;"/><line style="stroke:#181818;stroke-width:0.5;" x1="613" x2="666" y1="487" y2="487"/><text fill="#000000" font-family="sans-serif" font-size="14" lengthAdjust="spacing" textLength="27" x="623" y="508.5332">tabs</text></g><!--MD5=[af596523ef5df50a69939f7f05d25da9]
entity utilities_component--><g id="elem_utilities_component"><path d="M279,582 L320,582 A3.75,3.75 0 0 1 322.5,584.5 L329.5,603 L347,603 A2.5,2.5 0 0 1 349.5,605.5 L349.5,635.1094 A2.5,2.5 0 0 1 347,637.6094 L279,637.6094 A2.5,2.5 0 0 1 276.5,635.1094 L276.5,584.5 A2.5,2.5 0 0 1 279,582 " fill="#F1F1F1" style="stroke:#181818;stroke-width:0.5;"/><line style="stroke:#181818;stroke-width:0.5;" x1="276.5" x2="329.5" y1="603" y2="603"/><text fill="#000000" font-family="sans-serif" font-size="14" lengthAdjust="spacing" textLength="43" x="286.5" y="624.5332">utilities</text></g><!--MD5=[0e36387fdf182fe50b87f7c73451e85e]
entity hero_hp--><g id="elem_hero_hp"><path d="M698.5,234 L739.5,234 A3.75,3.75 0 0 1 742,236.5 L749,255 L763.5,255 A2.5,2.5 0 0 1 766,257.5 L766,287.1094 A2.5,2.5 0 0 1 763.5,289.6094 L698.5,289.6094 A2.5,2.5 0 0 1 696,287.1094 L696,236.5 A2.5,2.5 0 0 1 698.5,234 " fill="#F1F1F1" style="stroke:#181818;stroke-width:0.5;"/><line style="stroke:#181818;stroke-width:0.5;" x1="696" x2="749" y1="255" y2="255"/><text fill="#000000" font-family="sans-serif" font-size="14" lengthAdjust="spacing" textLength="29" x="706" y="276.5332">hero</text></g><!--MD5=[0c94fe6194c6852343ab60b2e29d2fd5]
entity reviews_hp--><g id="elem_reviews_hp"><path d="M804,234 L845,234 A3.75,3.75 0 0 1 847.5,236.5 L854.5,255 L876,255 A2.5,2.5 0 0 1 878.5,257.5 L878.5,287.1094 A2.5,2.5 0 0 1 876,289.6094 L804,289.6094 A2.5,2.5 0 0 1 801.5,287.1094 L801.5,236.5 A2.5,2.5 0 0 1 804,234 " fill="#F1F1F1" style="stroke:#181818;stroke-width:0.5;"/><line style="stroke:#181818;stroke-width:0.5;" x1="801.5" x2="854.5" y1="255" y2="255"/><text fill="#000000" font-family="sans-serif" font-size="14" lengthAdjust="spacing" textLength="47" x="811.5" y="276.5332">reviews</text></g><!--MD5=[682fe3e8e918289a607d3da5feb11867]
entity services_hp--><g id="elem_services_hp"><path d="M692.5,350 L733.5,350 A3.75,3.75 0 0 1 736,352.5 L743,371 L769.5,371 A2.5,2.5 0 0 1 772,373.5 L772,403.1094 A2.5,2.5 0 0 1 769.5,405.6094 L692.5,405.6094 A2.5,2.5 0 0 1 690,403.1094 L690,352.5 A2.5,2.5 0 0 1 692.5,350 " fill="#F1F1F1" style="stroke:#181818;stroke-width:0.5;"/><line style="stroke:#181818;stroke-width:0.5;" x1="690" x2="743" y1="371" y2="371"/><text fill="#000000" font-family="sans-serif" font-size="14" lengthAdjust="spacing" textLength="52" x="700" y="392.5332">services</text></g><!--MD5=[e4c29aa11c37d7f1dff76e69e9a741db]
entity study_groups_hp--><g id="elem_study_groups_hp"><path d="M810,350 L851,350 A3.75,3.75 0 0 1 853.5,352.5 L860.5,371 L918,371 A2.5,2.5 0 0 1 920.5,373.5 L920.5,403.1094 A2.5,2.5 0 0 1 918,405.6094 L810,405.6094 A2.5,2.5 0 0 1 807.5,403.1094 L807.5,352.5 A2.5,2.5 0 0 1 810,350 " fill="#F1F1F1" style="stroke:#181818;stroke-width:0.5;"/><line style="stroke:#181818;stroke-width:0.5;" x1="807.5" x2="860.5" y1="371" y2="371"/><text fill="#000000" font-family="sans-serif" font-size="14" lengthAdjust="spacing" textLength="83" x="817.5" y="392.5332">study-groups</text></g><!--MD5=[924ab6bdb8c0b9af8d14f0abc6f0532e]
entity aggiorna_password_auth--><g id="elem_aggiorna_password_auth"><path d="M1159,858 L1200,858 A3.75,3.75 0 0 1 1202.5,860.5 L1209.5,879 L1305,879 A2.5,2.5 0 0 1 1307.5,881.5 L1307.5,911.1094 A2.5,2.5 0 0 1 1305,913.6094 L1159,913.6094 A2.5,2.5 0 0 1 1156.5,911.1094 L1156.5,860.5 A2.5,2.5 0 0 1 1159,858 " fill="#F1F1F1" style="stroke:#181818;stroke-width:0.5;"/><line style="stroke:#181818;stroke-width:0.5;" x1="1156.5" x2="1209.5" y1="879" y2="879"/><text fill="#000000" font-family="sans-serif" font-size="14" lengthAdjust="spacing" textLength="121" x="1166.5" y="900.5332">aggiorna-password</text></g><!--MD5=[a63360aaabf41599003fba4ba158f9cc]
entity login_auth--><g id="elem_login_auth"><path d="M1345.5,858 L1386.5,858 A3.75,3.75 0 0 1 1389,860.5 L1396,879 L1410.5,879 A2.5,2.5 0 0 1 1413,881.5 L1413,911.1094 A2.5,2.5 0 0 1 1410.5,913.6094 L1345.5,913.6094 A2.5,2.5 0 0 1 1343,911.1094 L1343,860.5 A2.5,2.5 0 0 1 1345.5,858 " fill="#F1F1F1" style="stroke:#181818;stroke-width:0.5;"/><line style="stroke:#181818;stroke-width:0.5;" x1="1343" x2="1396" y1="879" y2="879"/><text fill="#000000" font-family="sans-serif" font-size="14" lengthAdjust="spacing" textLength="30" x="1353" y="900.5332">login</text></g><!--MD5=[de786881deaedfd0ec73eed3ba65c934]
entity recupero_password_auth--><g id="elem_recupero_password_auth"><path d="M1158.5,974 L1199.5,974 A3.75,3.75 0 0 1 1202,976.5 L1209,995 L1305.5,995 A2.5,2.5 0 0 1 1308,997.5 L1308,1027.1094 A2.5,2.5 0 0 1 1305.5,1029.6094 L1158.5,1029.6094 A2.5,2.5 0 0 1 1156,1027.1094 L1156,976.5 A2.5,2.5 0 0 1 1158.5,974 " fill="#F1F1F1" style="stroke:#181818;stroke-width:0.5;"/><line style="stroke:#181818;stroke-width:0.5;" x1="1156" x2="1209" y1="995" y2="995"/><text fill="#000000" font-family="sans-serif" font-size="14" lengthAdjust="spacing" textLength="122" x="1166" y="1016.5332">recupero-password</text></g><!--MD5=[761cf21c818bb8e21ddea85f297fdf49]
entity registrazione_auth--><g id="elem_registrazione_auth"><path d="M1346,974 L1387,974 A3.75,3.75 0 0 1 1389.5,976.5 L1396.5,995 L1452,995 A2.5,2.5 0 0 1 1454.5,997.5 L1454.5,1027.1094 A2.5,2.5 0 0 1 1452,1029.6094 L1346,1029.6094 A2.5,2.5 0 0 1 1343.5,1027.1094 L1343.5,976.5 A2.5,2.5 0 0 1 1346,974 " fill="#F1F1F1" style="stroke:#181818;stroke-width:0.5;"/><line style="stroke:#181818;stroke-width:0.5;" x1="1343.5" x2="1396.5" y1="995" y2="995"/><text fill="#000000" font-family="sans-serif" font-size="14" lengthAdjust="spacing" textLength="81" x="1353.5" y="1016.5332">registrazione</text></g><!--MD5=[e939ca035ac17cd9107982b10cc3bb97]
entity callback--><g id="elem_callback"><path d="M1451,858 L1492,858 A3.75,3.75 0 0 1 1494.5,860.5 L1501.5,879 L1527,879 A2.5,2.5 0 0 1 1529.5,881.5 L1529.5,911.1094 A2.5,2.5 0 0 1 1527,913.6094 L1451,913.6094 A2.5,2.5 0 0 1 1448.5,911.1094 L1448.5,860.5 A2.5,2.5 0 0 1 1451,858 " fill="#F1F1F1" style="stroke:#181818;stroke-width:0.5;"/><line style="stroke:#181818;stroke-width:0.5;" x1="1448.5" x2="1501.5" y1="879" y2="879"/><text fill="#000000" font-family="sans-serif" font-size="14" lengthAdjust="spacing" textLength="51" x="1458.5" y="900.5332">callback</text></g><!--MD5=[557378ec577b5447d21cbbdb7a4101fe]
entity i_miei_gruppi_private--><g id="elem_i_miei_gruppi_private"><path d="M865.5,858 L906.5,858 A3.75,3.75 0 0 1 909,860.5 L916,879 L968.5,879 A2.5,2.5 0 0 1 971,881.5 L971,911.1094 A2.5,2.5 0 0 1 968.5,913.6094 L865.5,913.6094 A2.5,2.5 0 0 1 863,911.1094 L863,860.5 A2.5,2.5 0 0 1 865.5,858 " fill="#F1F1F1" style="stroke:#181818;stroke-width:0.5;"/><line style="stroke:#181818;stroke-width:0.5;" x1="863" x2="916" y1="879" y2="879"/><text fill="#000000" font-family="sans-serif" font-size="14" lengthAdjust="spacing" textLength="78" x="873" y="900.5332">i-miei-gruppi</text></g><!--MD5=[c5b62d8ee1948ce05612e9949eb9b679]
entity profilo_private--><g id="elem_profilo_private"><path d="M1008.5,858 L1049.5,858 A3.75,3.75 0 0 1 1052,860.5 L1059,879 L1073.5,879 A2.5,2.5 0 0 1 1076,881.5 L1076,911.1094 A2.5,2.5 0 0 1 1073.5,913.6094 L1008.5,913.6094 A2.5,2.5 0 0 1 1006,911.1094 L1006,860.5 A2.5,2.5 0 0 1 1008.5,858 " fill="#F1F1F1" style="stroke:#181818;stroke-width:0.5;"/><line style="stroke:#181818;stroke-width:0.5;" x1="1006" x2="1059" y1="879" y2="879"/><text fill="#000000" font-family="sans-serif" font-size="14" lengthAdjust="spacing" textLength="39" x="1016" y="900.5332">profilo</text></g><!--MD5=[13ea2d98db6382c8c055833f18ae5666]
entity recensioni_private--><g id="elem_recensioni_private"><path d="M872,974 L913,974 A3.75,3.75 0 0 1 915.5,976.5 L922.5,995 L962,995 A2.5,2.5 0 0 1 964.5,997.5 L964.5,1027.1094 A2.5,2.5 0 0 1 962,1029.6094 L872,1029.6094 A2.5,2.5 0 0 1 869.5,1027.1094 L869.5,976.5 A2.5,2.5 0 0 1 872,974 " fill="#F1F1F1" style="stroke:#181818;stroke-width:0.5;"/><line style="stroke:#181818;stroke-width:0.5;" x1="869.5" x2="922.5" y1="995" y2="995"/><text fill="#000000" font-family="sans-serif" font-size="14" lengthAdjust="spacing" textLength="65" x="879.5" y="1016.5332">recensioni</text></g><!--MD5=[db0012a899c653e4e36ac832653e5e88]
entity id_corsi--><g id="elem_id_corsi"><path d="M463.5,858 L504.5,858 A3.75,3.75 0 0 1 507,860.5 L514,879 L528.5,879 A2.5,2.5 0 0 1 531,881.5 L531,911.1094 A2.5,2.5 0 0 1 528.5,913.6094 L463.5,913.6094 A2.5,2.5 0 0 1 461,911.1094 L461,860.5 A2.5,2.5 0 0 1 463.5,858 " fill="#F1F1F1" style="stroke:#181818;stroke-width:0.5;"/><line style="stroke:#181818;stroke-width:0.5;" x1="461" x2="514" y1="879" y2="879"/><text fill="#000000" font-family="sans-serif" font-size="14" lengthAdjust="spacing" textLength="19" x="471" y="900.5332">[id]</text></g><!--MD5=[589e0318af6d591ab63284db3f5f0678]
entity id_gruppi--><g id="elem_id_gruppi"><path d="M715.5,858 L756.5,858 A3.75,3.75 0 0 1 759,860.5 L766,879 L780.5,879 A2.5,2.5 0 0 1 783,881.5 L783,911.1094 A2.5,2.5 0 0 1 780.5,913.6094 L715.5,913.6094 A2.5,2.5 0 0 1 713,911.1094 L713,860.5 A2.5,2.5 0 0 1 715.5,858 " fill="#F1F1F1" style="stroke:#181818;stroke-width:0.5;"/><line style="stroke:#181818;stroke-width:0.5;" x1="713" x2="766" y1="879" y2="879"/><text fill="#000000" font-family="sans-serif" font-size="14" lengthAdjust="spacing" textLength="19" x="723" y="900.5332">[id]</text></g><!--MD5=[f6f9b4b0df1f2d9ca7a5e0c669875d32]
entity id_professori--><g id="elem_id_professori"><path d="M589.5,858 L630.5,858 A3.75,3.75 0 0 1 633,860.5 L640,879 L654.5,879 A2.5,2.5 0 0 1 657,881.5 L657,911.1094 A2.5,2.5 0 0 1 654.5,913.6094 L589.5,913.6094 A2.5,2.5 0 0 1 587,911.1094 L587,860.5 A2.5,2.5 0 0 1 589.5,858 " fill="#F1F1F1" style="stroke:#181818;stroke-width:0.5;"/><line style="stroke:#181818;stroke-width:0.5;" x1="587" x2="640" y1="879" y2="879"/><text fill="#000000" font-family="sans-serif" font-size="14" lengthAdjust="spacing" textLength="19" x="597" y="900.5332">[id]</text></g><!--MD5=[bb15794bc70c193794818e4ee35fdf50]
link lib to routes--><!--MD5=[bb15794bc70c193794818e4ee35fdf50]
link lib to routes--><!--MD5=[e6ee682afa32a316e03713fa30e81237]
@startuml PackageDiagram

package App {
   package src{
        package lib {
            package assets_lib as "assets" {
                folder icons_asset as "icons"
                folder images_asset as "images"
            }
            
            package controller_lib as "controller" {
                folder auth_controller as "auth"
                folder corsi_controller as "corsi"
                folder gruppi_controller as "gruppi"
                folder professori_controller as "professori"
                folder profilo_controller as "profilo"
                folder utilities_controller as "utilities"
            }

            package components_lib as "components" {
                folder auth_component as "auth"
                folder corsi_component as "corsi"
                folder footer_component as "footer"
                folder form_component as "form"
                folder gruppi_component as "gruppi"
                folder layout_component as "layout"
                folder modal_component as "modal"
                folder navbar_component as "navbar"
                folder professori_component as "professori"
                folder profilo_component as "profilo"
                folder reviews_component as "reviews"
                folder tabs_component as "tabs"
                folder utilities_component as "utilities"
                package home_page_component as "home-page"{
                    folder hero_hp as "hero"
                    folder reviews_hp as "reviews"
                    folder services_hp as "services"
                    folder study_groups_hp as "study-groups"
                }
            }

            folder data_lib as "data"
        }

        package routes {
            package auth_route as "(auth)" {
                folder aggiorna_password_auth as "aggiorna-password"
                package auth_auth as "auth"{
                    folder callback
                }
                folder login_auth as "login"
                folder recupero_password_auth as "recupero-password"
                folder registrazione_auth as "registrazione"
            }
            
            package private_route as "(private)"{
                package account_private as "account"{
                    folder i_miei_gruppi_private as "i-miei-gruppi"
                    folder profilo_private as "profilo"
                    folder recensioni_private as "recensioni"
                }
            }

            package corsi_route as "corsi" {
                folder id_corsi as "[id]"
            }

            package gruppi_route as "gruppi" {
                folder id_gruppi as "[id]"
            }

            package professori_route as "professori" {
                folder id_professori as "[id]"
            }
        }
        
        folder style
    }
}

routes -[hidden]u- - - - lib
lib -[hidden]d- routes

@enduml

PlantUML version 1.2022.7(Mon Aug 22 19:01:30 CEST 2022)
(GPL source distribution)
Java Runtime: Java(TM) SE Runtime Environment
JVM: Java HotSpot(TM) 64-Bit Server VM
Default Encoding: UTF-8
Language: it
Country: IT
--></g></svg>