<?xml version="1.0" encoding="UTF-8" standalone="no"?><svg xmlns="http://www.w3.org/2000/svg" xmlns:xlink="http://www.w3.org/1999/xlink" contentStyleType="text/css" height="699px" preserveAspectRatio="none" style="width:752px;height:699px;background:#FFFFFF;" version="1.1" viewBox="0 0 752 699" width="752px" zoomAndPan="magnify"><defs/><g><!--MD5=[4c7ee273665ef905abccd9f53e67707c]
class Profilo--><g id="elem_Profilo"><rect codeLine="4" fill="#F1F1F1" height="100.8281" id="Profilo" rx="2.5" ry="2.5" style="stroke:#181818;stroke-width:0.5;" width="157" x="118.5" y="37.5"/><ellipse cx="172.75" cy="53.5" fill="#ADD1B2" rx="11" ry="11" style="stroke:#181818;stroke-width:1.0;"/><path d="M171.6094,54.2969 L171.6094,56.7969 L175.9375,56.7969 L175.9375,55.875 Q175.9375,55.2656 176.1719,55 Q176.4219,54.7344 176.7969,54.7344 Q177.1719,54.7344 177.4063,55 Q177.6406,55.2656 177.6406,55.875 L177.6406,58.5 L169.6406,58.5 Q169.0156,58.5 168.75,58.2656 Q168.5,58.0313 168.5,57.6406 Q168.5,57.2656 168.7656,57.0313 Q169.0313,56.7969 169.6406,56.7969 L169.9063,56.7969 L169.9063,50.1406 L169.6406,50.1406 Q169.0156,50.1406 168.75,49.9063 Q168.5,49.6719 168.5,49.2813 Q168.5,48.9063 168.75,48.6719 Q169.0156,48.4375 169.6406,48.4375 L177.2656,48.4375 L177.2656,51.0313 Q177.2656,51.6406 177.0313,51.9063 Q176.8125,52.1563 176.4219,52.1563 Q176.0469,52.1563 175.8125,51.9063 Q175.5781,51.6406 175.5781,51.0313 L175.5781,50.1406 L171.6094,50.1406 L171.6094,52.5938 L173.0938,52.5938 Q173.0938,51.9375 173.2188,51.75 Q173.4844,51.3438 173.9531,51.3438 Q174.3281,51.3438 174.5625,51.6094 Q174.7969,51.8594 174.7969,52.4688 L174.7969,54.4375 Q174.7969,54.9844 174.6719,55.1719 Q174.4063,55.5625 173.9531,55.5625 Q173.4844,55.5625 173.2188,55.1563 Q173.0938,54.9688 173.0938,54.2969 L171.6094,54.2969 Z " fill="#000000"/><text fill="#000000" font-family="sans-serif" font-size="14" lengthAdjust="spacing" textLength="40" x="193.25" y="59.2285">Profilo</text><line style="stroke:#181818;stroke-width:0.5;" x1="119.5" x2="274.5" y1="69.5" y2="69.5"/><ellipse cx="129.5" cy="83.8047" fill="#000000" rx="3" ry="3" style="stroke:#000000;stroke-width:1.0;"/><text fill="#000000" font-family="sans-serif" font-size="14" lengthAdjust="spacing" textLength="131" x="138.5" y="88.0332">id: uuid «generated»</text><line style="stroke:#181818;stroke-width:1.0;" x1="119.5" x2="274.5" y1="95.1094" y2="95.1094"/><text fill="#000000" font-family="sans-serif" font-size="14" lengthAdjust="spacing" textLength="93" x="124.5" y="113.6426">username: text</text><text fill="#000000" font-family="sans-serif" font-size="14" lengthAdjust="spacing" textLength="113" x="124.5" y="131.252">profile_photo: text</text></g><!--MD5=[eb0593272757b056b8a94dba26324fb6]
class Professore--><g id="elem_Professore"><rect codeLine="11" fill="#F1F1F1" height="206.4844" id="Professore" rx="2.5" ry="2.5" style="stroke:#181818;stroke-width:0.5;" width="172" x="214" y="469"/><ellipse cx="261.25" cy="485" fill="#ADD1B2" rx="11" ry="11" style="stroke:#181818;stroke-width:1.0;"/><path d="M260.1094,485.7969 L260.1094,488.2969 L264.4375,488.2969 L264.4375,487.375 Q264.4375,486.7656 264.6719,486.5 Q264.9219,486.2344 265.2969,486.2344 Q265.6719,486.2344 265.9063,486.5 Q266.1406,486.7656 266.1406,487.375 L266.1406,490 L258.1406,490 Q257.5156,490 257.25,489.7656 Q257,489.5313 257,489.1406 Q257,488.7656 257.2656,488.5313 Q257.5313,488.2969 258.1406,488.2969 L258.4063,488.2969 L258.4063,481.6406 L258.1406,481.6406 Q257.5156,481.6406 257.25,481.4063 Q257,481.1719 257,480.7813 Q257,480.4063 257.25,480.1719 Q257.5156,479.9375 258.1406,479.9375 L265.7656,479.9375 L265.7656,482.5313 Q265.7656,483.1406 265.5313,483.4063 Q265.3125,483.6563 264.9219,483.6563 Q264.5469,483.6563 264.3125,483.4063 Q264.0781,483.1406 264.0781,482.5313 L264.0781,481.6406 L260.1094,481.6406 L260.1094,484.0938 L261.5938,484.0938 Q261.5938,483.4375 261.7188,483.25 Q261.9844,482.8438 262.4531,482.8438 Q262.8281,482.8438 263.0625,483.1094 Q263.2969,483.3594 263.2969,483.9688 L263.2969,485.9375 Q263.2969,486.4844 263.1719,486.6719 Q262.9063,487.0625 262.4531,487.0625 Q261.9844,487.0625 261.7188,486.6563 Q261.5938,486.4688 261.5938,485.7969 L260.1094,485.7969 Z " fill="#000000"/><text fill="#000000" font-family="sans-serif" font-size="14" lengthAdjust="spacing" textLength="69" x="281.75" y="490.7285">Professore</text><line style="stroke:#181818;stroke-width:0.5;" x1="215" x2="385" y1="501" y2="501"/><ellipse cx="225" cy="515.3047" fill="#000000" rx="3" ry="3" style="stroke:#000000;stroke-width:1.0;"/><text fill="#000000" font-family="sans-serif" font-size="14" lengthAdjust="spacing" textLength="127" x="234" y="519.5332">id: int4 «generated»</text><line style="stroke:#181818;stroke-width:1.0;" x1="215" x2="385" y1="526.6094" y2="526.6094"/><text fill="#000000" font-family="sans-serif" font-size="14" lengthAdjust="spacing" textLength="65" x="220" y="545.1426">nome: text</text><text fill="#000000" font-family="sans-serif" font-size="14" lengthAdjust="spacing" textLength="63" x="220" y="562.752">email: text</text><text fill="#000000" font-family="sans-serif" font-size="14" lengthAdjust="spacing" textLength="81" x="220" y="580.3613">telefono: text</text><text fill="#000000" font-family="sans-serif" font-size="14" lengthAdjust="spacing" textLength="62" x="220" y="597.9707">ruolo: text</text><text fill="#000000" font-family="sans-serif" font-size="14" lengthAdjust="spacing" textLength="83" x="220" y="615.5801">struttura: text</text><text fill="#000000" font-family="sans-serif" font-size="14" lengthAdjust="spacing" textLength="51" x="220" y="633.1895">link: text</text><text fill="#000000" font-family="sans-serif" font-size="14" lengthAdjust="spacing" textLength="90" x="220" y="650.7988">immagine: text</text><text fill="#000000" font-family="sans-serif" font-size="14" lengthAdjust="spacing" textLength="160" x="220" y="668.4082">valutazione_media: float4</text></g><!--MD5=[3dbfa416b7f9e97cf9f6d177fe61c972]
class Corso--><g id="elem_Corso"><rect codeLine="24" fill="#F1F1F1" height="241.7031" id="Corso" rx="2.5" ry="2.5" style="stroke:#181818;stroke-width:0.5;" width="172" x="7" y="451"/><ellipse cx="69.75" cy="467" fill="#ADD1B2" rx="11" ry="11" style="stroke:#181818;stroke-width:1.0;"/><path d="M68.6094,467.7969 L68.6094,470.2969 L72.9375,470.2969 L72.9375,469.375 Q72.9375,468.7656 73.1719,468.5 Q73.4219,468.2344 73.7969,468.2344 Q74.1719,468.2344 74.4063,468.5 Q74.6406,468.7656 74.6406,469.375 L74.6406,472 L66.6406,472 Q66.0156,472 65.75,471.7656 Q65.5,471.5313 65.5,471.1406 Q65.5,470.7656 65.7656,470.5313 Q66.0313,470.2969 66.6406,470.2969 L66.9063,470.2969 L66.9063,463.6406 L66.6406,463.6406 Q66.0156,463.6406 65.75,463.4063 Q65.5,463.1719 65.5,462.7813 Q65.5,462.4063 65.75,462.1719 Q66.0156,461.9375 66.6406,461.9375 L74.2656,461.9375 L74.2656,464.5313 Q74.2656,465.1406 74.0313,465.4063 Q73.8125,465.6563 73.4219,465.6563 Q73.0469,465.6563 72.8125,465.4063 Q72.5781,465.1406 72.5781,464.5313 L72.5781,463.6406 L68.6094,463.6406 L68.6094,466.0938 L70.0938,466.0938 Q70.0938,465.4375 70.2188,465.25 Q70.4844,464.8438 70.9531,464.8438 Q71.3281,464.8438 71.5625,465.1094 Q71.7969,465.3594 71.7969,465.9688 L71.7969,467.9375 Q71.7969,468.4844 71.6719,468.6719 Q71.4063,469.0625 70.9531,469.0625 Q70.4844,469.0625 70.2188,468.6563 Q70.0938,468.4688 70.0938,467.7969 L68.6094,467.7969 Z " fill="#000000"/><text fill="#000000" font-family="sans-serif" font-size="14" lengthAdjust="spacing" textLength="38" x="90.25" y="472.7285">Corso</text><line style="stroke:#181818;stroke-width:0.5;" x1="8" x2="178" y1="483" y2="483"/><ellipse cx="18" cy="497.3047" fill="#000000" rx="3" ry="3" style="stroke:#000000;stroke-width:1.0;"/><text fill="#000000" font-family="sans-serif" font-size="14" lengthAdjust="spacing" textLength="127" x="27" y="501.5332">id: int4 «generated»</text><line style="stroke:#181818;stroke-width:1.0;" x1="8" x2="178" y1="508.6094" y2="508.6094"/><text fill="#000000" font-family="sans-serif" font-size="14" lengthAdjust="spacing" textLength="65" x="13" y="527.1426">nome: text</text><text fill="#000000" font-family="sans-serif" font-size="14" lengthAdjust="spacing" textLength="71" x="13" y="544.752">codice: text</text><text fill="#000000" font-family="sans-serif" font-size="14" lengthAdjust="spacing" textLength="63" x="13" y="562.3613">anno: int2</text><text fill="#000000" font-family="sans-serif" font-size="14" lengthAdjust="spacing" textLength="72" x="13" y="579.9707">facolta: text</text><text fill="#000000" font-family="sans-serif" font-size="14" lengthAdjust="spacing" textLength="69" x="13" y="597.5801">crediti: int2</text><text fill="#000000" font-family="sans-serif" font-size="14" lengthAdjust="spacing" textLength="101" x="13" y="615.1895">descrizione: text</text><text fill="#000000" font-family="sans-serif" font-size="14" lengthAdjust="spacing" textLength="53" x="13" y="632.7988">tipo: text</text><text fill="#000000" font-family="sans-serif" font-size="14" lengthAdjust="spacing" textLength="68" x="13" y="650.4082">lingua: text</text><text fill="#000000" font-family="sans-serif" font-size="14" lengthAdjust="spacing" textLength="88" x="13" y="668.0176">anno_full: text</text><text fill="#000000" font-family="sans-serif" font-size="14" lengthAdjust="spacing" textLength="160" x="13" y="685.627">valutazione_media: float4</text></g><!--MD5=[2dae49e1ee3a8a98ed71813748ae341a]
class Recensione_Corso--><g id="elem_Recensione_Corso"><rect codeLine="39" fill="#F1F1F1" height="161.6563" id="Recensione_Corso" rx="2.5" ry="2.5" style="stroke:#181818;stroke-width:0.5;" width="153" x="17.5" y="229"/><ellipse cx="32.5" cy="245" fill="#ADD1B2" rx="11" ry="11" style="stroke:#181818;stroke-width:1.0;"/><path d="M31.3594,245.7969 L31.3594,248.2969 L35.6875,248.2969 L35.6875,247.375 Q35.6875,246.7656 35.9219,246.5 Q36.1719,246.2344 36.5469,246.2344 Q36.9219,246.2344 37.1563,246.5 Q37.3906,246.7656 37.3906,247.375 L37.3906,250 L29.3906,250 Q28.7656,250 28.5,249.7656 Q28.25,249.5313 28.25,249.1406 Q28.25,248.7656 28.5156,248.5313 Q28.7813,248.2969 29.3906,248.2969 L29.6563,248.2969 L29.6563,241.6406 L29.3906,241.6406 Q28.7656,241.6406 28.5,241.4063 Q28.25,241.1719 28.25,240.7813 Q28.25,240.4063 28.5,240.1719 Q28.7656,239.9375 29.3906,239.9375 L37.0156,239.9375 L37.0156,242.5313 Q37.0156,243.1406 36.7813,243.4063 Q36.5625,243.6563 36.1719,243.6563 Q35.7969,243.6563 35.5625,243.4063 Q35.3281,243.1406 35.3281,242.5313 L35.3281,241.6406 L31.3594,241.6406 L31.3594,244.0938 L32.8438,244.0938 Q32.8438,243.4375 32.9688,243.25 Q33.2344,242.8438 33.7031,242.8438 Q34.0781,242.8438 34.3125,243.1094 Q34.5469,243.3594 34.5469,243.9688 L34.5469,245.9375 Q34.5469,246.4844 34.4219,246.6719 Q34.1563,247.0625 33.7031,247.0625 Q33.2344,247.0625 32.9688,246.6563 Q32.8438,246.4688 32.8438,245.7969 L31.3594,245.7969 Z " fill="#000000"/><text fill="#000000" font-family="sans-serif" font-size="14" lengthAdjust="spacing" textLength="121" x="46.5" y="250.7285">Recensione_Corso</text><line style="stroke:#181818;stroke-width:0.5;" x1="18.5" x2="169.5" y1="261" y2="261"/><ellipse cx="28.5" cy="275.3047" fill="#000000" rx="3" ry="3" style="stroke:#000000;stroke-width:1.0;"/><text fill="#000000" font-family="sans-serif" font-size="14" lengthAdjust="spacing" textLength="127" x="37.5" y="279.5332">id: int8 «generated»</text><line style="stroke:#181818;stroke-width:1.0;" x1="18.5" x2="169.5" y1="286.6094" y2="286.6094"/><text fill="#000000" font-family="sans-serif" font-size="14" lengthAdjust="spacing" textLength="102" x="23.5" y="305.1426">valutazione: int2</text><text fill="#000000" font-family="sans-serif" font-size="14" lengthAdjust="spacing" textLength="101" x="23.5" y="322.752">descrizione: text</text><text fill="#000000" font-family="sans-serif" font-size="14" lengthAdjust="spacing" textLength="124" x="23.5" y="340.3613">data_modifica: date</text><line style="stroke:#181818;stroke-width:1.0;" x1="18.5" x2="169.5" y1="347.4375" y2="347.4375"/><text fill="#000000" font-family="sans-serif" font-size="14" lengthAdjust="spacing" textLength="131" x="23.5" y="365.9707">id_profilo: uuid «FK»</text><text fill="#000000" font-family="sans-serif" font-size="14" lengthAdjust="spacing" textLength="123" x="23.5" y="383.5801">id_corso: int4 «FK»</text></g><!--MD5=[0130dce9262aa30200a6f9d04b1814b7]
class Recensione_Professore--><g id="elem_Recensione_Professore"><rect codeLine="50" fill="#F1F1F1" height="161.6563" id="Recensione_Professore" rx="2.5" ry="2.5" style="stroke:#181818;stroke-width:0.5;" width="184" x="207" y="229"/><ellipse cx="222" cy="245" fill="#ADD1B2" rx="11" ry="11" style="stroke:#181818;stroke-width:1.0;"/><path d="M220.8594,245.7969 L220.8594,248.2969 L225.1875,248.2969 L225.1875,247.375 Q225.1875,246.7656 225.4219,246.5 Q225.6719,246.2344 226.0469,246.2344 Q226.4219,246.2344 226.6563,246.5 Q226.8906,246.7656 226.8906,247.375 L226.8906,250 L218.8906,250 Q218.2656,250 218,249.7656 Q217.75,249.5313 217.75,249.1406 Q217.75,248.7656 218.0156,248.5313 Q218.2813,248.2969 218.8906,248.2969 L219.1563,248.2969 L219.1563,241.6406 L218.8906,241.6406 Q218.2656,241.6406 218,241.4063 Q217.75,241.1719 217.75,240.7813 Q217.75,240.4063 218,240.1719 Q218.2656,239.9375 218.8906,239.9375 L226.5156,239.9375 L226.5156,242.5313 Q226.5156,243.1406 226.2813,243.4063 Q226.0625,243.6563 225.6719,243.6563 Q225.2969,243.6563 225.0625,243.4063 Q224.8281,243.1406 224.8281,242.5313 L224.8281,241.6406 L220.8594,241.6406 L220.8594,244.0938 L222.3438,244.0938 Q222.3438,243.4375 222.4688,243.25 Q222.7344,242.8438 223.2031,242.8438 Q223.5781,242.8438 223.8125,243.1094 Q224.0469,243.3594 224.0469,243.9688 L224.0469,245.9375 Q224.0469,246.4844 223.9219,246.6719 Q223.6563,247.0625 223.2031,247.0625 Q222.7344,247.0625 222.4688,246.6563 Q222.3438,246.4688 222.3438,245.7969 L220.8594,245.7969 Z " fill="#000000"/><text fill="#000000" font-family="sans-serif" font-size="14" lengthAdjust="spacing" textLength="152" x="236" y="250.7285">Recensione_Professore</text><line style="stroke:#181818;stroke-width:0.5;" x1="208" x2="390" y1="261" y2="261"/><ellipse cx="218" cy="275.3047" fill="#000000" rx="3" ry="3" style="stroke:#000000;stroke-width:1.0;"/><text fill="#000000" font-family="sans-serif" font-size="14" lengthAdjust="spacing" textLength="131" x="227" y="279.5332">id: uuid «generated»</text><line style="stroke:#181818;stroke-width:1.0;" x1="208" x2="390" y1="286.6094" y2="286.6094"/><text fill="#000000" font-family="sans-serif" font-size="14" lengthAdjust="spacing" textLength="102" x="213" y="305.1426">valutazione: int2</text><text fill="#000000" font-family="sans-serif" font-size="14" lengthAdjust="spacing" textLength="101" x="213" y="322.752">descrizione: text</text><text fill="#000000" font-family="sans-serif" font-size="14" lengthAdjust="spacing" textLength="124" x="213" y="340.3613">data_modifica: date</text><line style="stroke:#181818;stroke-width:1.0;" x1="208" x2="390" y1="347.4375" y2="347.4375"/><text fill="#000000" font-family="sans-serif" font-size="14" lengthAdjust="spacing" textLength="131" x="213" y="365.9707">id_profilo: uuid «FK»</text><text fill="#000000" font-family="sans-serif" font-size="14" lengthAdjust="spacing" textLength="156" x="213" y="383.5801">id_professore: int4 «FK»</text></g><!--MD5=[a22e725d69018131a3ec397d0e975a28]
class Gruppo--><g id="elem_Gruppo"><rect codeLine="61" fill="#F1F1F1" height="161.6563" id="Gruppo" rx="2.5" ry="2.5" style="stroke:#181818;stroke-width:0.5;" width="243" x="502.5" y="7"/><ellipse cx="595.75" cy="23" fill="#ADD1B2" rx="11" ry="11" style="stroke:#181818;stroke-width:1.0;"/><path d="M594.6094,23.7969 L594.6094,26.2969 L598.9375,26.2969 L598.9375,25.375 Q598.9375,24.7656 599.1719,24.5 Q599.4219,24.2344 599.7969,24.2344 Q600.1719,24.2344 600.4063,24.5 Q600.6406,24.7656 600.6406,25.375 L600.6406,28 L592.6406,28 Q592.0156,28 591.75,27.7656 Q591.5,27.5313 591.5,27.1406 Q591.5,26.7656 591.7656,26.5313 Q592.0313,26.2969 592.6406,26.2969 L592.9063,26.2969 L592.9063,19.6406 L592.6406,19.6406 Q592.0156,19.6406 591.75,19.4063 Q591.5,19.1719 591.5,18.7813 Q591.5,18.4063 591.75,18.1719 Q592.0156,17.9375 592.6406,17.9375 L600.2656,17.9375 L600.2656,20.5313 Q600.2656,21.1406 600.0313,21.4063 Q599.8125,21.6563 599.4219,21.6563 Q599.0469,21.6563 598.8125,21.4063 Q598.5781,21.1406 598.5781,20.5313 L598.5781,19.6406 L594.6094,19.6406 L594.6094,22.0938 L596.0938,22.0938 Q596.0938,21.4375 596.2188,21.25 Q596.4844,20.8438 596.9531,20.8438 Q597.3281,20.8438 597.5625,21.1094 Q597.7969,21.3594 597.7969,21.9688 L597.7969,23.9375 Q597.7969,24.4844 597.6719,24.6719 Q597.4063,25.0625 596.9531,25.0625 Q596.4844,25.0625 596.2188,24.6563 Q596.0938,24.4688 596.0938,23.7969 L594.6094,23.7969 Z " fill="#000000"/><text fill="#000000" font-family="sans-serif" font-size="14" lengthAdjust="spacing" textLength="48" x="616.25" y="28.7285">Gruppo</text><line style="stroke:#181818;stroke-width:0.5;" x1="503.5" x2="744.5" y1="39" y2="39"/><ellipse cx="513.5" cy="53.3047" fill="#000000" rx="3" ry="3" style="stroke:#000000;stroke-width:1.0;"/><text fill="#000000" font-family="sans-serif" font-size="14" lengthAdjust="spacing" textLength="131" x="522.5" y="57.5332">id: uuid «generated»</text><line style="stroke:#181818;stroke-width:1.0;" x1="503.5" x2="744.5" y1="64.6094" y2="64.6094"/><text fill="#000000" font-family="sans-serif" font-size="14" lengthAdjust="spacing" textLength="65" x="508.5" y="83.1426">nome: text</text><text fill="#000000" font-family="sans-serif" font-size="14" lengthAdjust="spacing" textLength="101" x="508.5" y="100.752">descrizione: text</text><text fill="#000000" font-family="sans-serif" font-size="14" lengthAdjust="spacing" textLength="102" x="508.5" y="118.3613">privato: boolean</text><text fill="#000000" font-family="sans-serif" font-size="14" lengthAdjust="spacing" textLength="231" x="508.5" y="135.9707">codice_ingresso: string «generated»</text><line style="stroke:#181818;stroke-width:1.0;" x1="503.5" x2="744.5" y1="143.0469" y2="143.0469"/><text fill="#000000" font-family="sans-serif" font-size="14" lengthAdjust="spacing" textLength="146" x="508.5" y="161.5801">proprietario: uuid «FK»</text></g><!--MD5=[502196a1673855b72065181c95434386]
class Iscrizione_Gruppo--><g id="elem_Iscrizione_Gruppo"><rect codeLine="72" fill="#F1F1F1" height="126.4375" id="Iscrizione_Gruppo" rx="2.5" ry="2.5" style="stroke:#181818;stroke-width:0.5;" width="157" x="310.5" y="25"/><ellipse cx="330.45" cy="41" fill="#ADD1B2" rx="11" ry="11" style="stroke:#181818;stroke-width:1.0;"/><path d="M329.3094,41.7969 L329.3094,44.2969 L333.6375,44.2969 L333.6375,43.375 Q333.6375,42.7656 333.8719,42.5 Q334.1219,42.2344 334.4969,42.2344 Q334.8719,42.2344 335.1063,42.5 Q335.3406,42.7656 335.3406,43.375 L335.3406,46 L327.3406,46 Q326.7156,46 326.45,45.7656 Q326.2,45.5313 326.2,45.1406 Q326.2,44.7656 326.4656,44.5313 Q326.7313,44.2969 327.3406,44.2969 L327.6063,44.2969 L327.6063,37.6406 L327.3406,37.6406 Q326.7156,37.6406 326.45,37.4063 Q326.2,37.1719 326.2,36.7813 Q326.2,36.4063 326.45,36.1719 Q326.7156,35.9375 327.3406,35.9375 L334.9656,35.9375 L334.9656,38.5313 Q334.9656,39.1406 334.7313,39.4063 Q334.5125,39.6563 334.1219,39.6563 Q333.7469,39.6563 333.5125,39.4063 Q333.2781,39.1406 333.2781,38.5313 L333.2781,37.6406 L329.3094,37.6406 L329.3094,40.0938 L330.7938,40.0938 Q330.7938,39.4375 330.9188,39.25 Q331.1844,38.8438 331.6531,38.8438 Q332.0281,38.8438 332.2625,39.1094 Q332.4969,39.3594 332.4969,39.9688 L332.4969,41.9375 Q332.4969,42.4844 332.3719,42.6719 Q332.1063,43.0625 331.6531,43.0625 Q331.1844,43.0625 330.9188,42.6563 Q330.7938,42.4688 330.7938,41.7969 L329.3094,41.7969 Z " fill="#000000"/><text fill="#000000" font-family="sans-serif" font-size="14" lengthAdjust="spacing" textLength="114" x="345.55" y="46.7285">Iscrizione_Gruppo</text><line style="stroke:#181818;stroke-width:0.5;" x1="311.5" x2="466.5" y1="57" y2="57"/><ellipse cx="321.5" cy="71.3047" fill="#000000" rx="3" ry="3" style="stroke:#000000;stroke-width:1.0;"/><text fill="#000000" font-family="sans-serif" font-size="14" lengthAdjust="spacing" textLength="131" x="330.5" y="75.5332">id: uuid «generated»</text><line style="stroke:#181818;stroke-width:1.0;" x1="311.5" x2="466.5" y1="82.6094" y2="82.6094"/><text fill="#000000" font-family="sans-serif" font-size="14" lengthAdjust="spacing" textLength="130" x="316.5" y="101.1426">data_iscrizione: date</text><line style="stroke:#181818;stroke-width:1.0;" x1="311.5" x2="466.5" y1="108.2188" y2="108.2188"/><text fill="#000000" font-family="sans-serif" font-size="14" lengthAdjust="spacing" textLength="131" x="316.5" y="126.752">id_profilo: uuid «FK»</text><text fill="#000000" font-family="sans-serif" font-size="14" lengthAdjust="spacing" textLength="137" x="316.5" y="144.3613">id_gruppo: uuid «FK»</text></g><!--MD5=[0927a239bff3e1592d963974f6378f7a]
class Messaggio--><g id="elem_Messaggio"><rect codeLine="81" fill="#F1F1F1" height="161.6563" id="Messaggio" rx="2.5" ry="2.5" style="stroke:#181818;stroke-width:0.5;" width="157" x="545.5" y="229"/><ellipse cx="586.15" cy="245" fill="#ADD1B2" rx="11" ry="11" style="stroke:#181818;stroke-width:1.0;"/><path d="M585.0094,245.7969 L585.0094,248.2969 L589.3375,248.2969 L589.3375,247.375 Q589.3375,246.7656 589.5719,246.5 Q589.8219,246.2344 590.1969,246.2344 Q590.5719,246.2344 590.8063,246.5 Q591.0406,246.7656 591.0406,247.375 L591.0406,250 L583.0406,250 Q582.4156,250 582.15,249.7656 Q581.9,249.5313 581.9,249.1406 Q581.9,248.7656 582.1656,248.5313 Q582.4313,248.2969 583.0406,248.2969 L583.3063,248.2969 L583.3063,241.6406 L583.0406,241.6406 Q582.4156,241.6406 582.15,241.4063 Q581.9,241.1719 581.9,240.7813 Q581.9,240.4063 582.15,240.1719 Q582.4156,239.9375 583.0406,239.9375 L590.6656,239.9375 L590.6656,242.5313 Q590.6656,243.1406 590.4313,243.4063 Q590.2125,243.6563 589.8219,243.6563 Q589.4469,243.6563 589.2125,243.4063 Q588.9781,243.1406 588.9781,242.5313 L588.9781,241.6406 L585.0094,241.6406 L585.0094,244.0938 L586.4938,244.0938 Q586.4938,243.4375 586.6188,243.25 Q586.8844,242.8438 587.3531,242.8438 Q587.7281,242.8438 587.9625,243.1094 Q588.1969,243.3594 588.1969,243.9688 L588.1969,245.9375 Q588.1969,246.4844 588.0719,246.6719 Q587.8063,247.0625 587.3531,247.0625 Q586.8844,247.0625 586.6188,246.6563 Q586.4938,246.4688 586.4938,245.7969 L585.0094,245.7969 Z " fill="#000000"/><text fill="#000000" font-family="sans-serif" font-size="14" lengthAdjust="spacing" textLength="68" x="605.85" y="250.7285">Messaggio</text><line style="stroke:#181818;stroke-width:0.5;" x1="546.5" x2="701.5" y1="261" y2="261"/><ellipse cx="556.5" cy="275.3047" fill="#000000" rx="3" ry="3" style="stroke:#000000;stroke-width:1.0;"/><text fill="#000000" font-family="sans-serif" font-size="14" lengthAdjust="spacing" textLength="131" x="565.5" y="279.5332">id: uuid «generated»</text><line style="stroke:#181818;stroke-width:1.0;" x1="546.5" x2="701.5" y1="286.6094" y2="286.6094"/><text fill="#000000" font-family="sans-serif" font-size="14" lengthAdjust="spacing" textLength="61" x="551.5" y="305.1426">testo: text</text><text fill="#000000" font-family="sans-serif" font-size="14" lengthAdjust="spacing" textLength="97" x="551.5" y="322.752">media_link: text</text><text fill="#000000" font-family="sans-serif" font-size="14" lengthAdjust="spacing" textLength="64" x="551.5" y="340.3613">data: date</text><line style="stroke:#181818;stroke-width:1.0;" x1="546.5" x2="701.5" y1="347.4375" y2="347.4375"/><text fill="#000000" font-family="sans-serif" font-size="14" lengthAdjust="spacing" textLength="123" x="551.5" y="365.9707">mittente: uuid «FK»</text><text fill="#000000" font-family="sans-serif" font-size="14" lengthAdjust="spacing" textLength="137" x="551.5" y="383.5801">id_gruppo: uuid «FK»</text></g><!--MD5=[173a6b6af9da0cd4c20abf8563eada72]
link Profilo to Recensione_Corso--><g id="link_Profilo_Recensione_Corso"><path codeLine="93" d="M144.5,146.65 C144.5,146.65 144.5,220.66 144.5,220.66 " fill="none" id="Profilo-Recensione_Corso" style="stroke:#181818;stroke-width:1.0;"/><line style="stroke:#181818;stroke-width:1.0;" x1="144.5" x2="150.5" y1="220.66" y2="228.66"/><line style="stroke:#181818;stroke-width:1.0;" x1="144.5" x2="138.5" y1="220.66" y2="228.66"/><line style="stroke:#181818;stroke-width:1.0;" x1="144.5" x2="144.5" y1="220.66" y2="228.66"/><ellipse cx="144.5" cy="214.66" fill="none" rx="4" ry="4" style="stroke:#181818;stroke-width:1.0;"/><line style="stroke:#181818;stroke-width:1.0;" x1="140.5" x2="148.5" y1="142.65" y2="142.65"/><line style="stroke:#181818;stroke-width:1.0;" x1="140.5" x2="148.5" y1="145.65" y2="145.65"/><line style="stroke:#181818;stroke-width:1.0;" x1="144.5" x2="144.5" y1="146.65" y2="138.65"/></g><!--MD5=[01b6301b01ba6395132e5fe6e84c2346]
link Profilo to Recensione_Professore--><g id="link_Profilo_Recensione_Professore"><path codeLine="94" d="M229.83,146.65 C229.83,146.65 229.83,220.66 229.83,220.66 " fill="none" id="Profilo-Recensione_Professore" style="stroke:#181818;stroke-width:1.0;"/><line style="stroke:#181818;stroke-width:1.0;" x1="229.83" x2="235.83" y1="220.66" y2="228.66"/><line style="stroke:#181818;stroke-width:1.0;" x1="229.83" x2="223.83" y1="220.66" y2="228.66"/><line style="stroke:#181818;stroke-width:1.0;" x1="229.83" x2="229.83" y1="220.66" y2="228.66"/><ellipse cx="229.83" cy="214.66" fill="none" rx="4" ry="4" style="stroke:#181818;stroke-width:1.0;"/><line style="stroke:#181818;stroke-width:1.0;" x1="225.83" x2="233.83" y1="142.65" y2="142.65"/><line style="stroke:#181818;stroke-width:1.0;" x1="225.83" x2="233.83" y1="145.65" y2="145.65"/><line style="stroke:#181818;stroke-width:1.0;" x1="229.83" x2="229.83" y1="146.65" y2="138.65"/></g><!--MD5=[d66529be269221894ca4c82c33659c69]
link Recensione_Corso to Corso--><g id="link_Recensione_Corso_Corso"><path codeLine="96" d="M94,399.1 C94,399.1 94,442.87 94,442.87 " fill="none" id="Recensione_Corso-Corso" style="stroke:#181818;stroke-width:1.0;"/><line style="stroke:#181818;stroke-width:1.0;" x1="98" x2="90" y1="446.87" y2="446.87"/><line style="stroke:#181818;stroke-width:1.0;" x1="98" x2="90" y1="443.87" y2="443.87"/><line style="stroke:#181818;stroke-width:1.0;" x1="94" x2="94" y1="442.87" y2="450.87"/><line style="stroke:#181818;stroke-width:1.0;" x1="94" x2="88" y1="399.1" y2="391.1"/><line style="stroke:#181818;stroke-width:1.0;" x1="94" x2="100" y1="399.1" y2="391.1"/><line style="stroke:#181818;stroke-width:1.0;" x1="94" x2="94" y1="399.1" y2="391.1"/><ellipse cx="94" cy="405.1" fill="none" rx="4" ry="4" style="stroke:#181818;stroke-width:1.0;"/></g><!--MD5=[8f09058c851c47410364f0615e9cf068]
link Recensione_Professore to Professore--><g id="link_Recensione_Professore_Professore"><path codeLine="97" d="M300,399.1 C300,399.1 300,460.58 300,460.58 " fill="none" id="Recensione_Professore-Professore" style="stroke:#181818;stroke-width:1.0;"/><line style="stroke:#181818;stroke-width:1.0;" x1="304" x2="296" y1="464.58" y2="464.58"/><line style="stroke:#181818;stroke-width:1.0;" x1="304" x2="296" y1="461.58" y2="461.58"/><line style="stroke:#181818;stroke-width:1.0;" x1="300" x2="300" y1="460.58" y2="468.58"/><line style="stroke:#181818;stroke-width:1.0;" x1="300" x2="294" y1="399.1" y2="391.1"/><line style="stroke:#181818;stroke-width:1.0;" x1="300" x2="306" y1="399.1" y2="391.1"/><line style="stroke:#181818;stroke-width:1.0;" x1="300" x2="300" y1="399.1" y2="391.1"/><ellipse cx="300" cy="405.1" fill="none" rx="4" ry="4" style="stroke:#181818;stroke-width:1.0;"/></g><!--MD5=[85f800fe4983a14f37a082062d5f948e]
link Profilo to Iscrizione_Gruppo--><g id="link_Profilo_Iscrizione_Gruppo"><path codeLine="99" d="M283.65,88 C283.65,88 302.47,88 302.47,88 " fill="none" id="Profilo-Iscrizione_Gruppo" style="stroke:#181818;stroke-width:1.0;"/><line style="stroke:#181818;stroke-width:1.0;" x1="302.47" x2="310.47" y1="88" y2="82"/><line style="stroke:#181818;stroke-width:1.0;" x1="302.47" x2="310.47" y1="88" y2="94"/><line style="stroke:#181818;stroke-width:1.0;" x1="302.47" x2="310.47" y1="88" y2="88"/><ellipse cx="296.47" cy="88" fill="none" rx="4" ry="4" style="stroke:#181818;stroke-width:1.0;"/><line style="stroke:#181818;stroke-width:1.0;" x1="279.65" x2="279.65" y1="92" y2="84"/><line style="stroke:#181818;stroke-width:1.0;" x1="282.65" x2="282.65" y1="92" y2="84"/><line style="stroke:#181818;stroke-width:1.0;" x1="283.65" x2="275.65" y1="88" y2="88"/></g><!--MD5=[691bc8e6ea1646ae7c88803416b2d519]
link Iscrizione_Gruppo to Gruppo--><g id="link_Iscrizione_Gruppo_Gruppo"><path codeLine="100" d="M475.58,88 C475.58,88 494.32,88 494.32,88 " fill="none" id="Iscrizione_Gruppo-Gruppo" style="stroke:#181818;stroke-width:1.0;"/><line style="stroke:#181818;stroke-width:1.0;" x1="498.32" x2="498.32" y1="84" y2="92"/><line style="stroke:#181818;stroke-width:1.0;" x1="495.32" x2="495.32" y1="84" y2="92"/><line style="stroke:#181818;stroke-width:1.0;" x1="494.32" x2="502.32" y1="88" y2="88"/><line style="stroke:#181818;stroke-width:1.0;" x1="475.58" x2="467.58" y1="88" y2="96"/><line style="stroke:#181818;stroke-width:1.0;" x1="475.58" x2="467.58" y1="88" y2="80"/><line style="stroke:#181818;stroke-width:1.0;" x1="475.58" x2="467.58" y1="88" y2="88"/></g><!--MD5=[222334fc7ac885d9481fa1b2582702a9]
link Profilo to Messaggio--><g id="link_Profilo_Messaggio"><path codeLine="102" d="M252.67,146.63 C252.67,146.63 252.67,199 252.67,199 C252.67,199 584.75,199 584.75,199 C584.75,199 584.75,220.75 584.75,220.75 " fill="none" id="Profilo-Messaggio" style="stroke:#181818;stroke-width:1.0;"/><line style="stroke:#181818;stroke-width:1.0;" x1="584.75" x2="590.75" y1="220.75" y2="228.75"/><line style="stroke:#181818;stroke-width:1.0;" x1="584.75" x2="578.75" y1="220.75" y2="228.75"/><line style="stroke:#181818;stroke-width:1.0;" x1="584.75" x2="584.75" y1="220.75" y2="228.75"/><ellipse cx="584.75" cy="214.75" fill="none" rx="4" ry="4" style="stroke:#181818;stroke-width:1.0;"/><line style="stroke:#181818;stroke-width:1.0;" x1="248.67" x2="256.67" y1="142.63" y2="142.63"/><line style="stroke:#181818;stroke-width:1.0;" x1="248.67" x2="256.67" y1="145.63" y2="145.63"/><line style="stroke:#181818;stroke-width:1.0;" x1="252.67" x2="252.67" y1="146.63" y2="138.63"/></g><!--MD5=[2a9b917f38e1c25c3d90d98835b63099]
link Gruppo to Messaggio--><g id="link_Gruppo_Messaggio"><path codeLine="103" d="M663.25,177.09 C663.25,177.09 663.25,220.76 663.25,220.76 " fill="none" id="Gruppo-Messaggio" style="stroke:#181818;stroke-width:1.0;"/><line style="stroke:#181818;stroke-width:1.0;" x1="663.25" x2="669.25" y1="220.76" y2="228.76"/><line style="stroke:#181818;stroke-width:1.0;" x1="663.25" x2="657.25" y1="220.76" y2="228.76"/><line style="stroke:#181818;stroke-width:1.0;" x1="663.25" x2="663.25" y1="220.76" y2="228.76"/><ellipse cx="663.25" cy="214.76" fill="none" rx="4" ry="4" style="stroke:#181818;stroke-width:1.0;"/><line style="stroke:#181818;stroke-width:1.0;" x1="659.25" x2="667.25" y1="173.09" y2="173.09"/><line style="stroke:#181818;stroke-width:1.0;" x1="659.25" x2="667.25" y1="176.09" y2="176.09"/><line style="stroke:#181818;stroke-width:1.0;" x1="663.25" x2="663.25" y1="177.09" y2="169.09"/></g><!--MD5=[2a9b917f38e1c25c3d90d98835b63099]
link Gruppo to Messaggio--><!--MD5=[05a9da3b31279d2a9bc107bf629f250a]
@startuml ER_Diagram

skinparam linetype ortho

entity Profilo {
    * id: uuid <<generated>>
    - -
    username: text
    profile_photo: text
}

entity Professore {
    * id: int4 <<generated>>
    - -
    nome: text
    email: text
    telefono: text
    ruolo: text
    struttura: text
    link: text
    immagine: text
    valutazione_media: float4
}

entity Corso {
    * id: int4 <<generated>>
    - -
    nome: text
    codice: text
    anno: int2
    facolta: text
    crediti: int2
    descrizione: text
    tipo: text
    lingua: text
    anno_full: text
    valutazione_media: float4
}

entity Recensione_Corso {
    *id: int8 <<generated>>
    - -
    valutazione: int2
    descrizione: text
    data_modifica: date
    - -
    id_profilo: uuid <<FK>>
    id_corso: int4 <<FK>>
}

entity Recensione_Professore {
    *id: uuid <<generated>>
    - -
    valutazione: int2
    descrizione: text
    data_modifica: date
    - -
    id_profilo: uuid <<FK>>
    id_professore: int4 <<FK>>
}

entity Gruppo {
    *id: uuid <<generated>>
    - -
    nome: text
    descrizione: text
    privato: boolean
    codice_ingresso: string <<generated>>
    - -
    proprietario: uuid <<FK>>
}

entity Iscrizione_Gruppo {
    *id: uuid <<generated>>
    - -
    data_iscrizione: date
    - -
    id_profilo: uuid <<FK>>
    id_gruppo: uuid <<FK>>
}

entity Messaggio {
    *id: uuid <<generated>>
    - -
    testo: text
    media_link: text
    data: date
    - -
    mittente: uuid <<FK>>
    id_gruppo: uuid <<FK>>
}


Profilo ||-d-o{ Recensione_Corso
Profilo ||-d-o{ Recensione_Professore

Recensione_Corso }o-d-|| Corso
Recensione_Professore }o-d-|| Professore

Profilo ||-o{ Iscrizione_Gruppo
Iscrizione_Gruppo }-|| Gruppo

Profilo ||-d-o{ Messaggio
Messaggio }o-u-|| Gruppo
Gruppo -[hidden]d- Messaggio


@enduml

PlantUML version 1.2022.7(Mon Aug 22 19:01:30 CEST 2022)
(GPL source distribution)
Java Runtime: Java(TM) SE Runtime Environment
JVM: Java HotSpot(TM) 64-Bit Server VM
Default Encoding: UTF-8
Language: it
Country: IT
--></g></svg>